<svg xmlns="http://www.w3.org/2000/svg" xmlns:xlink="http://www.w3.org/1999/xlink" width="465.267" height="338.493" viewBox="0 0 465.267 338.493">
  <defs>
    <clipPath id="clip-path">
      <rect id="Rectangle_2" data-name="Rectangle 2" width="82.098" height="82.098" fill="#ffa65a"/>
    </clipPath>
  </defs>
  <g id="Group_152" data-name="Group 152" transform="translate(-65.677 -66.24)">
    <g id="Group_54" data-name="Group 54" transform="translate(51.81 247.868)">
      <g id="Group_49" data-name="Group 49" transform="translate(79.688 74.558)">
        <g id="Group_48" data-name="Group 48" transform="translate(0)">
          <g id="Group_47" data-name="Group 47" clip-path="url(#clip-path)">
            <g id="Group_46" data-name="Group 46" transform="translate(-18.988 -18.989)">
              <g id="Group_2" data-name="Group 2" transform="translate(61.269 61.276)">
                <path id="Path_1" data-name="Path 1" d="M252.216,412.676l-1.609,1.609h0l-3.957,3.958h0l-3.957,3.958h0l-3.958,3.956h0l-3.957,3.957h0l-3.958,3.958-3.958,3.957h0l-3.957,3.957h0l-3.957,3.957h0l-7.722,7.723-.193.192h0l-3.958,3.957h0l-3.957,3.957h0l-3.957,3.958h0l-3.958,3.957h0l-1.79,1.79q.376-.008.75-.021l1.983-1.982h0l3.957-3.957h0l3.957-3.957h0l3.957-3.958h0l3.958-3.958h0l3.957-3.957h0l3.957-3.957h0l3.957-3.957h0l3.957-3.958h0l3.958-3.957h0l3.957-3.958h0l3.957-3.958h0l3.958-3.958h0l3.957-3.957h0l3.957-3.958h0l.647-.647C252.2,413.176,252.212,412.927,252.216,412.676Z" transform="translate(-193.411 -412.676)" fill="#ffa65a"/>
              </g>
              <g id="Group_3" data-name="Group 3" transform="translate(65.456 65.464)">
                <path id="Path_2" data-name="Path 2" d="M252.66,417.538l-1.379,1.378h0l-3.958,3.958h0l-3.957,3.956h0l-3.958,3.957h0l-7.722,7.722-.193.193h0l-3.958,3.957h0l-3.957,3.957h0l-3.957,3.958h0l-3.957,3.957h0l-3.957,3.957h0l-3.958,3.957h0L203.79,466.4h0l-3.957,3.957h0l-1.561,1.56c.269-.024.537-.046.8-.073l5.464-5.464.192-.193h0l3.957-3.957h0l3.958-3.958h0l3.958-3.958h0l3.957-3.957h0l3.957-3.957h0l3.957-3.957h0l3.958-3.958h0l3.957-3.957h0l3.957-3.958h0l3.958-3.958h0l3.958-3.958h0l3.957-3.957h0l.363-.363C252.614,418.075,252.636,417.806,252.66,417.538Z" transform="translate(-198.272 -417.538)" fill="#ffa65a"/>
              </g>
              <g id="Group_4" data-name="Group 4" transform="translate(87.87 87.877)">
                <path id="Path_3" data-name="Path 3" d="M224.294,468.944q.808-.423,1.6-.869l2.234-2.234h0l3.957-3.958h0l3.958-3.958h0L240,453.969h0l3.957-3.957h0l3.958-3.957h0l.9-.895q.446-.793.87-1.6l-2.708,2.708h0l-3.958,3.957h0l-7.722,7.723-.193.192h0l-3.958,3.957h0l-3.957,3.957h0Z" transform="translate(-224.294 -443.559)" fill="#ffa65a"/>
              </g>
              <g id="Group_5" data-name="Group 5" transform="translate(80.752 80.759)">
                <path id="Path_4" data-name="Path 4" d="M216.03,470.959q.592-.218,1.178-.448l1.859-1.86h0l3.957-3.957h0l3.957-3.958h0l3.957-3.958h0l3.958-3.957h0l3.957-3.957h0l3.957-3.957h0l3.958-3.958h0l3.957-3.957h0l.521-.522q.23-.587.448-1.178l-1.912,1.912-3.957,3.957h0l-3.958,3.957h0l-3.957,3.957h0l-3.958,3.958L230,456.993h0l-3.957,3.957h0l-3.957,3.957h0Z" transform="translate(-216.03 -435.295)" fill="#ffa65a"/>
              </g>
              <g id="Group_6" data-name="Group 6" transform="translate(75.007 75.013)">
                <path id="Path_5" data-name="Path 5" d="M214.185,467.727h0l3.957-3.957h0l3.957-3.958h0l3.958-3.958,3.957-3.957h0l3.958-3.957h0l3.957-3.957h0l3.957-3.958,3.958-3.957h0l3.957-3.958h0l2.488-2.489c.091-.333.183-.665.27-1l-3.7,3.7h0l-3.957,3.958h0l-3.958,3.957h0l-3.957,3.957h0l-3.958,3.957h0l-3.958,3.958h0l-3.957,3.958h0l-3.957,3.957h0l-3.957,3.957h0l-3.957,3.958-3.883,3.882c.335-.086.667-.177,1-.27Z" transform="translate(-209.36 -428.624)" fill="#ffa65a"/>
              </g>
              <g id="Group_7" data-name="Group 7" transform="translate(69.994 70.001)">
                <path id="Path_6" data-name="Path 6" d="M209.42,466.92h0l3.958-3.957h0l3.957-3.958h0l7.722-7.723.192-.192h0l3.957-3.957h0l3.958-3.957h0l7.915-7.915h0l3.958-3.958h0L249,427.349h0l3.662-3.662c.053-.294.1-.587.152-.882l-2.777,2.777-1.979,1.978h0l-3.957,3.957h0l-3.958,3.958h0l-3.957,3.957h0l-3.958,3.957h0l-3.957,3.957h0l-3.958,3.958h0l-3.957,3.958h0l-3.957,3.957h0l-3.957,3.957h0l-3.958,3.958h0l-3.957,3.957h0l-.98.979c.295-.049.589-.1.882-.151l1.041-1.041Z" transform="translate(-203.54 -422.806)" fill="#ffa65a"/>
              </g>
              <g id="Group_8" data-name="Group 8" transform="translate(13.267 13.265)">
                <path id="Path_7" data-name="Path 7" d="M146.806,356.937a60.373,60.373,0,0,0-9.123,9.122l3.243-3.243h0l3.957-3.958h0Z" transform="translate(-137.683 -356.937)" fill="#ffa65a"/>
              </g>
              <g id="Group_45" data-name="Group 45">
                <g id="Group_9" data-name="Group 9" transform="translate(50.189 50.196)">
                  <path id="Path_8" data-name="Path 8" d="M249.641,399.813l-.817.817h0l-3.957,3.957h0l-3.957,3.957h0l-3.958,3.958h0l-3.957,3.957h0l-3.958,3.958h0l-3.957,3.956h0l-3.957,3.957h0l-3.957,3.958h0l-3.957,3.957h0l-3.957,3.957h0l-3.958,3.957h0l-3.958,3.958h0l-3.957,3.958h0l-3.958,3.957h0l-3.957,3.957h0l-3.958,3.958h0l-3.958,3.957h0l-1,1c.208.034.417.071.627.1l5.27-5.271h0l3.958-3.957h0l3.957-3.958h0l7.722-7.723.192-.192h0l3.957-3.957h0l3.958-3.957h0l3.958-3.958h0l3.957-3.957h0l3.957-3.958h0l3.957-3.958h0l3.958-3.958h0l3.957-3.957h0l3.957-3.957h0l3.958-3.958h0l3.957-3.958h0l3.936-3.936C249.713,400.23,249.676,400.022,249.641,399.813Z" transform="translate(-180.548 -399.813)" fill="#ffa65a"/>
                </g>
                <g id="Group_10" data-name="Group 10" transform="translate(53.674 53.681)">
                  <path id="Path_9" data-name="Path 9" d="M250.674,403.859l-1.289,1.289h0l-3.957,3.957h0l-3.957,3.958h0l-3.958,3.958h0l-5.936,5.936-1.979,1.978h0l-3.957,3.957h0l-3.958,3.958h0l-3.957,3.957h0l-3.957,3.957h0l-3.957,3.957h0l-3.958,3.958h0l-3.957,3.958h0l-3.957,3.957h0l-3.958,3.957h0l-3.957,3.958h0l-3.958,3.957h0l-1.47,1.469c.221.023.444.044.666.065l1.747-1.747h0l3.958-3.957h0l3.957-3.957h0l3.957-3.958h0l3.958-3.958,3.957-3.957h0l3.958-3.957h0l3.957-3.957h0l7.914-7.915h0l3.957-3.958h0l3.958-3.958h0l6.4-6.4,1.512-1.512h0l3.958-3.958h0l3.957-3.958h0l3.957-3.958h0l.412-.412C250.718,404.3,250.7,404.08,250.674,403.859Z" transform="translate(-184.593 -403.859)" fill="#ffa65a"/>
                </g>
                <g id="Group_11" data-name="Group 11" transform="translate(57.358 57.365)">
                  <path id="Path_10" data-name="Path 10" d="M251.54,408.136l-1.562,1.563h0l-3.957,3.958h0l-3.957,3.958h0l-3.958,3.958h0l-3.957,3.956h0l-3.958,3.957h0l-3.958,3.958h0l-3.957,3.957h0l-3.957,3.957h0l-3.957,3.957h0L210.4,449.27l-3.958,3.958h0l-3.957,3.957h0l-3.957,3.957h0l-7.915,7.915h0L188.87,470.8c.235.01.469.02.7.027l1.982-1.982h0l3.957-3.957h0l3.957-3.957h0l3.957-3.958h0l3.957-3.958h0l3.958-3.957h0L215.3,445.1h0l3.957-3.957h0l3.958-3.958,3.957-3.957h0l3.958-3.958h0l3.957-3.958h0l3.957-3.958h0l3.958-3.957h0l3.957-3.958h0l3.957-3.958h0l.647-.647Q251.555,408.487,251.54,408.136Z" transform="translate(-188.87 -408.136)" fill="#ffa65a"/>
                </g>
                <g id="Group_12" data-name="Group 12" transform="translate(35.035 35.042)">
                  <path id="Path_11" data-name="Path 11" d="M242.571,382.219l-.143.143h0l-3.957,3.958h0l-3.958,3.958h0l-3.957,3.958h0l-3.958,3.957h0l-3.958,3.957h0l-3.957,3.957h0l-3.957,3.958h0l-3.957,3.957h0l-3.957,3.958h0l-3.958,3.956h0l-3.957,3.957h0l-3.957,3.958h0l-3.958,3.957h0l-3.957,3.957h0l-3.958,3.957h0l-3.958,3.958h0l-3.957,3.957h0l-3.958,3.957h0l-3.957,3.957h0l-3.957,3.958h0l-.321.32.5.229.569-.569.193-.193h0l3.957-3.957h0l3.957-3.958h0l3.958-3.958h0l3.957-3.957h0l3.958-3.957h0l3.957-3.957h0l3.958-3.958h0l3.957-3.957h0l3.957-3.958h0l3.957-3.958h0l3.958-3.958h0l3.957-3.957h0l3.957-3.957h0l3.957-3.958h0l3.957-3.958h0l3.958-3.957h0l3.957-3.958h0l3.957-3.957h0l3.958-3.957h0l3.387-3.387C242.724,382.552,242.647,382.386,242.571,382.219Z" transform="translate(-162.954 -382.219)" fill="#ffa65a"/>
                </g>
                <g id="Group_13" data-name="Group 13" transform="translate(37.805 37.812)">
                  <path id="Path_12" data-name="Path 12" d="M244.409,385.96q-.1-.264-.2-.525l-1.331,1.331h0l-3.957,3.958h0l-3.958,3.958h0L231,398.637h0l-3.958,3.957h0l-3.958,3.957h0l-3.957,3.958h0l-3.957,3.958h0l-5.936,5.936-1.979,1.978h0l-3.958,3.957h0l-3.958,3.958h0l-3.957,3.957h0l-3.958,3.957h0l-3.957,3.957h0l-3.958,3.958h0l-3.958,3.958h0l-3.957,3.957h0l-3.958,3.957h0l-3.957,3.958h0l-1.508,1.508c.174.07.349.138.525.206l1.926-1.927h0l3.957-3.957h0l3.958-3.958h0l7.915-7.915h0l3.958-3.957h0L192.366,438h0l7.914-7.915h0l3.957-3.958h0l3.958-3.958h0l3.958-3.958h0l3.957-3.957h0l3.958-3.957h0l3.957-3.958h0l3.958-3.958h0l3.957-3.957h0l3.957-3.958h0l3.958-3.957h0l3.957-3.957h0Z" transform="translate(-166.17 -385.435)" fill="#ffa65a"/>
                </g>
                <g id="Group_14" data-name="Group 14" transform="translate(27.376 27.383)">
                  <path id="Path_13" data-name="Path 13" d="M237.124,373.328l-3.845,3.845h0l-3.957,3.957h0l-3.958,3.958h0l-3.958,3.958h0L217.449,393h0l-3.957,3.957h0l-3.958,3.957h0l-3.957,3.957h0l-3.958,3.958h0l-3.957,3.958h0l-3.957,3.958h0l-3.958,3.956h0l-3.957,3.957h0l-3.958,3.958h0l-3.958,3.957h0l-3.957,3.957h0l-3.958,3.957h0L166,444.444h0l-3.957,3.958h0l-3.958,3.957h0l-3.957,3.957h0l-.065.064c.148.1.3.193.444.288l.563-.563h0l3.957-3.958h0l3.958-3.958,3.957-3.957h0l3.957-3.957h0l3.958-3.957h0l7.915-7.915h0l3.957-3.958h0l3.957-3.958h0l6.4-6.4,1.512-1.512h0l3.957-3.958h0l3.958-3.958h0l3.958-3.958h0l3.957-3.957h0l3.958-3.958h0l3.957-3.957h0l3.958-3.957h0l3.957-3.957h0l3.957-3.957h0l3.19-3.19C237.316,373.623,237.22,373.475,237.124,373.328Z" transform="translate(-154.063 -373.328)" fill="#ffa65a"/>
                </g>
                <g id="Group_15" data-name="Group 15" transform="translate(29.825 29.833)">
                  <path id="Path_14" data-name="Path 14" d="M239.294,376.633c-.088-.154-.178-.307-.268-.461l-1.4,1.4h0l-3.958,3.958h0l-3.957,3.957h0l-3.958,3.958h0L221.8,393.4h0l-3.957,3.957h0l-3.957,3.957h0l-3.957,3.957h0l-3.957,3.958h0l-3.958,3.958h0l-3.958,3.958h0L194.1,421.1h0l-3.958,3.957h0l-3.957,3.958h0l-3.958,3.957h0l-3.958,3.957h0l-3.957,3.957h0l-3.958,3.958-3.957,3.958h0l-3.957,3.957h0l-3.958,3.957h0l-1.573,1.572c.154.09.308.181.463.27l2.053-2.053h0l3.958-3.958h0l3.958-3.958h0l3.957-3.957h0l3.958-3.957h0l3.957-3.957h0l3.958-3.958h0l3.957-3.957h0l3.957-3.958h0l3.957-3.958h0L199,416.926h0l3.957-3.957h0l3.958-3.958h0l3.957-3.958h0l3.957-3.958h0l3.957-3.957h0l3.957-3.958h0l3.958-3.957h0l3.958-3.957,3.957-3.957h0l3.958-3.958h0Z" transform="translate(-156.906 -376.172)" fill="#ffa65a"/>
                </g>
                <g id="Group_16" data-name="Group 16" transform="translate(20.61 20.616)">
                  <path id="Path_15" data-name="Path 15" d="M231.268,365.863c-.113-.131-.224-.262-.338-.392l-2.7,2.7h0l-3.958,3.958h0l-3.958,3.958h0l-3.957,3.958h0L212.4,384h0l-3.957,3.958h0l-3.957,3.958h0l-3.958,3.957h0l-3.957,3.957h0l-3.957,3.957h0l-3.958,3.957h0L184.7,411.7h0l-3.958,3.958h0l-3.957,3.956h0l-3.957,3.957h0l-3.958,3.958-3.957,3.957h0l-3.957,3.957h0L157,439.4h0l-7.915,7.915h0l-2.873,2.874c.13.113.262.225.393.338l3.423-3.423h0l3.958-3.957h0l3.957-3.957h0l3.958-3.957h0l3.958-3.958h0l3.957-3.957h0l3.958-3.958h0l3.957-3.958h0l3.958-3.958h0l3.957-3.957h0l3.957-3.958h0l3.957-3.957h0l3.957-3.958h0l3.957-3.957h0l3.958-3.958h0l3.957-3.957h0l3.957-3.957,3.957-3.957h0l3.957-3.958h0l3.958-3.958h0l3.958-3.957Z" transform="translate(-146.207 -365.471)" fill="#ffa65a"/>
                </g>
                <g id="Group_17" data-name="Group 17" transform="translate(18.541 18.546)">
                  <path id="Path_16" data-name="Path 16" d="M229.064,363.444c-.118-.125-.235-.251-.354-.376l-.81.811-3.958,3.957h0l-3.958,3.958h0l-3.957,3.958h0l-3.957,3.958h0l-3.958,3.957h0l-3.957,3.958h0l-3.958,3.958h0l-3.957,3.957h0l-3.957,3.957h0l-3.958,3.957h0l-3.957,3.958h0l-3.958,3.958h0l-3.958,3.958h0l-3.957,3.956h0l-3.958,3.957h0l-3.957,3.958h0l-3.957,3.957h0l-3.958,3.957h0l-3.957,3.957h0l-3.958,3.958h0l-3.957,3.958h0l-.985.985c.124.12.251.236.376.354l1.551-1.55h0l3.957-3.957h0l3.958-3.957h0L157.6,434.9h0l3.958-3.958,3.957-3.957h0l3.957-3.958h0l3.958-3.958h0l7.626-7.626.289-.289h0l3.958-3.958h0l3.957-3.958h0l3.957-3.958h0l3.957-3.957h0l3.957-3.958h0l3.958-3.957h0l3.958-3.957h0l3.957-3.957h0l3.958-3.957h0l3.957-3.958h0l3.958-3.958h0l3.957-3.958h0Z" transform="translate(-143.805 -363.068)" fill="#ffa65a"/>
                </g>
                <g id="Group_18" data-name="Group 18" transform="translate(22.771 22.777)">
                  <path id="Path_17" data-name="Path 17" d="M233.395,368.389q-.159-.205-.32-.409l-.537.537h0l-3.957,3.957-3.958,3.958h0l-3.958,3.958h0l-3.957,3.958h0L212.75,388.3h0l-3.958,3.958h0l-3.957,3.957h0l-3.958,3.957h0l-3.957,3.957h0l-3.957,3.958h0L189,412.045h0L185.047,416h0l-3.958,3.956h0l-3.957,3.957h0l-7.722,7.722-.193.193h0l-3.957,3.957h0l-3.957,3.957h0l-3.958,3.958h0l-3.957,3.957h0l-3.958,3.957h0l-.712.712q.2.161.41.321l1.245-1.246h0l3.958-3.958h0l3.957-3.957h0l3.958-3.957h0l3.957-3.957h0l3.957-3.958h0l3.958-3.957h0l3.957-3.958h0l3.958-3.958h0l3.958-3.958h0l3.957-3.957h0l3.957-3.957h0l3.957-3.958h0l3.957-3.958h0L205.777,396h0l3.958-3.958h0l3.957-3.957h0l3.958-3.957h0l3.957-3.957h0l3.958-3.958h0l3.957-3.957h0Z" transform="translate(-148.716 -367.98)" fill="#ffa65a"/>
                </g>
                <g id="Group_19" data-name="Group 19" transform="translate(16.563 16.568)">
                  <path id="Path_18" data-name="Path 18" d="M226.781,361.133c-.123-.12-.245-.242-.37-.361l-2.788,2.788h0l-3.958,3.957h0l-3.957,3.958h0l-3.957,3.958h0l-3.957,3.957h0l-3.957,3.958h0l-3.958,3.958h0l-3.957,3.958h0l-3.957,3.957h0L188,399.175h0l-3.957,3.957h0l-3.958,3.958h0l-3.958,3.958h0l-5.936,5.936-1.978,1.978h0l-3.957,3.957h0l-3.957,3.958h0l-3.958,3.957h0l-3.957,3.957h0l-3.958,3.957h0l-3.958,3.958h0l-2.962,2.962c.119.125.241.246.361.37l3.544-3.544h0l3.957-3.957h0l3.958-3.957h0l7.915-7.915h0l3.957-3.958h0l3.957-3.958h0l3.958-3.958h0l3.957-3.957h0l3.958-3.958h0l3.957-3.958h0l3.957-3.958h0L192.905,395h0l3.957-3.958h0l3.957-3.957h0l3.958-3.957h0l3.957-3.957h0l3.957-3.957,3.957-3.957h0l3.957-3.958h0l3.958-3.958h0Z" transform="translate(-141.509 -360.772)" fill="#ffa65a"/>
                </g>
                <g id="Group_20" data-name="Group 20" transform="translate(0.778 0.78)">
                  <path id="Path_19" data-name="Path 19" d="M189.422,345.191h0l-3.958,3.957h0l-3.957,3.957h0l-3.958,3.957h0l-3.958,3.957h0l-3.957,3.957h0l-3.958,3.958h0l-3.957,3.958h0l-3.957,3.958h0L153.8,380.8h0l-3.957,3.958h0l-3.958,3.958h0l-3.957,3.957h0l-3.957,3.957h0l-3.957,3.957h0l-3.957,3.958h0l-3.957,3.958h0l-2.917,2.917c.034.209.068.419.1.626l3.756-3.755h0L131,404.335h0l3.957-3.958h0l3.958-3.958h0l3.957-3.957h0l3.957-3.958h0l3.958-3.957h0l3.957-3.957,3.958-3.957h0l3.958-3.958h0l3.957-3.958h0l3.958-3.958h0l3.957-3.958h0l3.958-3.958h0l3.957-3.957h0l3.957-3.957h0l3.957-3.957h0l2.432-2.432c-.208-.036-.417-.07-.626-.1Z" transform="translate(-123.183 -342.442)" fill="#ffa65a"/>
                </g>
                <g id="Group_21" data-name="Group 21" transform="translate(0.312 0.313)">
                  <path id="Path_20" data-name="Path 20" d="M185.389,345.115l-3.957,3.957h0l-3.958,3.957h0l-3.958,3.957h0l-3.957,3.957L165.6,364.9h0l-3.957,3.958h0l-3.957,3.958h0l-3.958,3.958h0l-3.957,3.957h0l-3.958,3.958h0l-3.958,3.958h0L137.9,392.6h0l-3.957,3.957h0l-3.957,3.957h0l-3.957,3.958h0l-3.383,3.383c.022.22.05.437.075.655l.293-.293h0l3.958-3.958h0l3.957-3.958h0l3.957-3.958h0l3.958-3.957h0l3.957-3.958h0l3.957-3.957h0l3.958-3.957h0l3.957-3.957h0l3.958-3.957h0l3.957-3.958h0l3.957-3.958h0l3.958-3.958h0l3.957-3.958,3.958-3.957h0l3.958-3.957h0l3.957-3.957h0l2.927-2.928c-.218-.025-.436-.053-.655-.075Z" transform="translate(-122.642 -341.9)" fill="#ffa65a"/>
                </g>
                <g id="Group_22" data-name="Group 22" transform="translate(0.048 0.049)">
                  <path id="Path_21" data-name="Path 21" d="M181.39,345.073h0l-3.958,3.957h0l-3.958,3.957h0l-3.957,3.957h0l-3.958,3.957h0l-3.957,3.957h0l-3.957,3.958h0l-3.958,3.958h0l-3.957,3.957h0l-3.958,3.958h0l-3.957,3.958h0l-3.957,3.958h0l-3.957,3.957h0l-3.957,3.957h0l-3.957,3.957h0l-3.647,3.646c.01.233.018.468.03.7l.6-.6h0l3.958-3.958h0l3.958-3.958h0l3.957-3.957h0l3.958-3.958h0l3.957-3.957h0l3.957-3.957h0l3.958-3.957h0l3.957-3.957,3.958-3.957h0l3.958-3.958h0l3.957-3.958h0l3.958-3.958h0l3.957-3.957h0l3.958-3.957h0l3.957-3.957h0l3.235-3.236c-.233-.012-.466-.021-.7-.03Z" transform="translate(-122.336 -341.594)" fill="#ffa65a"/>
                </g>
                <g id="Group_23" data-name="Group 23">
                  <path id="Path_22" data-name="Path 22" d="M177.424,345.065h0l-3.958,3.957h0l-3.957,3.957-3.958,3.957h0l-3.957,3.957h0l-3.957,3.957h0l-3.958,3.958h0l-3.957,3.957h0l-3.958,3.958h0l-3.958,3.958h0l-3.957,3.958h0l-3.957,3.958h0l-3.957,3.957h0l-3.957,3.957h0l-3.686,3.686c-.006.246-.007.493-.009.739l.68-.68h0l3.958-3.958h0l3.957-3.957h0l3.957-3.958h0l3.958-3.957h0l3.957-3.957h0l3.957-3.957h0l3.958-3.958h0l3.957-3.957h0l3.958-3.958h0l3.957-3.958h0l3.957-3.958h0l3.958-3.957h0l3.957-3.957,3.958-3.957h0l3.315-3.315c-.246,0-.494,0-.739.009Z" transform="translate(-122.28 -341.537)" fill="#ffa65a"/>
                </g>
                <g id="Group_24" data-name="Group 24" transform="translate(0.703 0.703)">
                  <path id="Path_23" data-name="Path 23" d="M169.622,345.178l-3.958,3.957h0l-3.957,3.957h0l-3.957,3.957h0l-3.958,3.957h0l-3.957,3.957h0l-3.958,3.958h0l-3.957,3.958h0l-3.957,3.958h0L134,380.792h0l-3.957,3.958h0l-3.957,3.958h0l-2.847,2.847c-.05.291-.1.582-.146.875l3.935-3.935h0l3.957-3.957h0l3.957-3.957h0l3.958-3.957h0l3.957-3.958h0l3.957-3.958h0l3.958-3.958h0l3.957-3.958h0l3.958-3.958h0l3.957-3.957h0l3.957-3.957h0l3.958-3.957h0l2.612-2.612c-.292.045-.583.1-.875.145Z" transform="translate(-123.096 -342.353)" fill="#ffa65a"/>
                </g>
                <g id="Group_25" data-name="Group 25" transform="translate(46.875 46.882)">
                  <path id="Path_24" data-name="Path 24" d="M178,467.156l3.957-3.957h0l3.958-3.957h0l3.957-3.958h0l3.958-3.958h0l3.957-3.957h0l3.957-3.957h0l3.957-3.957h0l3.958-3.958h0l3.957-3.957h0l3.957-3.958h0l3.957-3.958h0l3.957-3.958h0l3.958-3.957h0l3.957-3.957h0l3.957-3.958h0l3.958-3.958h0l3.957-3.957h0l3.32-3.32c-.042-.2-.085-.4-.13-.6l-.175.175h0l-3.957,3.957h0l-3.957,3.957h0l-3.958,3.957h0l-3.957,3.957h0l-3.958,3.958h0l-3.958,3.958h0l-3.957,3.956h0L216.63,427.8h0l-7.722,7.722-.193.193h0l-3.958,3.957h0l-3.957,3.957h0l-3.957,3.958h0l-3.958,3.957h0l-3.957,3.957h0l-3.958,3.957h0l-3.958,3.958h0l-3.957,3.957h0l-.354.354c.2.045.4.088.6.131l.7-.7Z" transform="translate(-176.7 -395.965)" fill="#ffa65a"/>
                </g>
                <g id="Group_26" data-name="Group 26" transform="translate(43.714 43.721)">
                  <path id="Path_25" data-name="Path 25" d="M177.488,462.69h0l3.957-3.957h0l3.958-3.958h0l3.958-3.958h0l3.957-3.957h0l3.957-3.957h0l3.957-3.957h0l3.957-3.958h0l3.958-3.957h0l3.957-3.958h0l3.957-3.958h0l3.958-3.958h0l3.957-3.957h0l3.958-3.958h0l3.957-3.957h0l3.957-3.958h0l3.958-3.957h0l3.957-3.958h0l2.549-2.55c-.052-.191-.1-.383-.155-.574l-3.336,3.336h0l-3.957,3.957h0l-3.958,3.957h0l-3.957,3.957h0l-3.958,3.958h0l-3.958,3.958h0l-3.957,3.958h0l-3.957,3.956h0l-3.957,3.957h0l-3.957,3.958-3.958,3.957h0l-3.957,3.957h0l-3.957,3.957h0l-7.915,7.915h0l-3.958,3.957h0l-3.957,3.957h0l-7.472,7.473c.19.053.382.1.575.155Z" transform="translate(-173.03 -392.295)" fill="#ffa65a"/>
                </g>
                <g id="Group_27" data-name="Group 27" transform="translate(40.694 40.701)">
                  <path id="Path_26" data-name="Path 26" d="M173.043,462.2h0L177,458.247h0l3.957-3.958h0l3.958-3.958h0l3.958-3.957h0l3.957-3.957h0l3.957-3.957h0l3.958-3.958,3.957-3.957h0l3.958-3.958h0l3.957-3.958h0l6.4-6.4,1.511-1.512h0l3.957-3.958h0l3.958-3.958h0l3.957-3.958h0l3.957-3.957h0l3.958-3.958h0l3.957-3.957h0l1.637-1.637c-.06-.184-.119-.367-.181-.55l-2.4,2.4h0l-3.957,3.958h0l-3.958,3.957h0l-3.957,3.957h0l-3.958,3.957h0l-3.958,3.958h0l-3.957,3.958h0l-3.957,3.958h0l-3.957,3.956h0L207.72,426.8h0l-3.958,3.958h0l-3.957,3.957h0l-3.957,3.957h0l-3.958,3.957h0l-3.957,3.958h0l-3.958,3.958h0l-3.958,3.957h0l-3.957,3.957h0l-3.958,3.958-2.577,2.577c.183.062.366.12.55.18Z" transform="translate(-169.524 -388.789)" fill="#ffa65a"/>
                </g>
                <g id="Group_28" data-name="Group 28" transform="translate(3.343 3.342)">
                  <path id="Path_27" data-name="Path 27" d="M163.047,345.417q-.572.2-1.14.409l-3.733,3.734h0l-3.958,3.957h0l-3.957,3.957h0l-3.958,3.957h0l-3.957,3.957h0l-3.957,3.958h0l-3.957,3.957h0l-3.957,3.957h0l-3.9,3.9q-.211.567-.41,1.14L127.456,381h0l3.957-3.957h0l3.957-3.958h0l3.958-3.957h0l3.957-3.958h0l3.957-3.958h0l3.958-3.958h0l3.957-3.957h0l3.958-3.957h0Z" transform="translate(-126.161 -345.417)" fill="#ffa65a"/>
                </g>
                <g id="Group_29" data-name="Group 29" transform="translate(32.377 32.383)">
                  <path id="Path_28" data-name="Path 28" d="M163.79,456.908h0l3.957-3.958h0l3.957-3.958h0l3.958-3.957h0l3.957-3.957h0l3.958-3.957h0l3.958-3.958h0l3.957-3.957h0l3.957-3.958h0l3.957-3.958h0l3.957-3.958h0l3.958-3.957h0l3.958-3.958h0l3.957-3.957h0l3.958-3.958h0l3.957-3.957h0l3.958-3.958h0l3.957-3.957h0l3.957-3.957h0l3.958-3.957h0l2.108-2.108c-.082-.161-.165-.321-.249-.481l-2.8,2.8h0l-3.958,3.958h0l-3.957,3.958h0l-3.958,3.958h0l-3.958,3.957h0l-3.957,3.957h0l-3.957,3.957h0l-3.958,3.957h0l-3.957,3.958h0l-3.958,3.958h0l-3.957,3.956h0l-3.957,3.957h0l-7.915,7.915h0l-3.958,3.957h0l-3.957,3.957h0l-7.722,7.723-.193.192h0l-3.957,3.957h0l-3.957,3.957h0l-2.979,2.979c.16.084.32.168.482.25Z" transform="translate(-159.868 -379.133)" fill="#ffa65a"/>
                </g>
                <g id="Group_30" data-name="Group 30" transform="translate(6.22 6.217)">
                  <path id="Path_29" data-name="Path 29" d="M155.177,349.525l-.5.5h0l-3.957,3.957-3.958,3.957h0l-3.958,3.957h0l-3.957,3.957h0l-3.957,3.957-3.957,3.958h0l-.662.662q-.4.744-.771,1.5l2.376-2.376h0l3.957-3.958h0l3.958-3.957,3.957-3.958h0l3.957-3.958h0l3.958-3.957h0l3.957-3.957,1.055-1.055Q155.921,349.131,155.177,349.525Z" transform="translate(-129.501 -348.755)" fill="#ffa65a"/>
                </g>
                <g id="Group_31" data-name="Group 31" transform="translate(25.027 25.033)">
                  <path id="Path_30" data-name="Path 30" d="M154.692,451.768h0l7.722-7.723.193-.192h0l3.957-3.957h0l3.957-3.957h0l3.958-3.958h0l3.957-3.957h0l3.958-3.958h0l3.957-3.958h0l3.957-3.958h0l3.957-3.957h0l3.957-3.957h0l3.957-3.958h0l3.958-3.958h0l3.957-3.957h0l3.957-3.958h0l3.957-3.957h0l3.957-3.957h0l3.958-3.957h0l3.958-3.957,3.957-3.957h0l1.6-1.6c-.1-.143-.2-.284-.3-.426l-2.239,2.239h0l-3.957,3.957h0l-3.958,3.957h0l-3.958,3.958h0l-3.957,3.958h0l-3.957,3.958h0l-3.957,3.957h0l-3.957,3.957h0l-3.958,3.957h0l-3.957,3.958h0l-3.957,3.958h0l-7.915,7.914h0l-3.958,3.957h0l-3.958,3.958h0l-3.957,3.957h0l-3.958,3.957h0l-3.957,3.957h0l-3.957,3.958h0l-3.958,3.958h0l-3.957,3.957h0l-2.414,2.414c.141.1.283.2.426.3Z" transform="translate(-151.335 -370.599)" fill="#ffa65a"/>
                </g>
                <g id="Group_32" data-name="Group 32" transform="translate(14.678 14.684)">
                  <path id="Path_31" data-name="Path 31" d="M139.321,443.29c.113.13.229.258.344.387l1.488-1.488h0l3.957-3.957h0l3.957-3.957h0l3.958-3.958h0l3.957-3.957h0l3.958-3.958h0l3.957-3.958h0l3.957-3.958h0l3.958-3.957h0l3.957-3.957h0l3.958-3.958h0l3.958-3.958h0l3.957-3.957h0l3.957-3.958h0l3.957-3.957h0l3.957-3.957h0l3.958-3.957h0l3.958-3.958h0l3.957-3.957h0L216.348,367h0l3.957-3.958h0l3.958-3.958h0l.16-.159c-.129-.115-.257-.231-.387-.344l-.716.716h0l-3.958,3.957h0l-3.957,3.957h0l-3.957,3.958h0l-3.957,3.957h0l-3.957,3.957h0l-3.958,3.958h0L195.617,387h0l-3.957,3.958h0l-3.958,3.957h0l-3.957,3.957h0l-3.958,3.957h0l-3.958,3.958h0l-3.957,3.957h0l-3.958,3.958h0l-3.957,3.956h0L160,422.614h0l-3.958,3.958h0l-3.957,3.957h0l-3.958,3.957h0l-3.957,3.957h0l-3.957,3.958h0Z" transform="translate(-139.321 -358.584)" fill="#ffa65a"/>
                </g>
                <g id="Group_33" data-name="Group 33" transform="translate(11.188 11.192)">
                  <path id="Path_32" data-name="Path 32" d="M135.269,438.3c.1.142.205.282.308.423l1.057-1.057h0l3.958-3.957h0l3.958-3.958h0l3.957-3.957h0l3.958-3.958h0l3.957-3.958h0l3.958-3.958h0l3.957-3.957h0l3.957-3.958h0l3.958-3.958h0l3.957-3.958h0l3.958-3.957h0l3.958-3.958h0l3.957-3.957h0l3.957-3.957L196,378.311h0l3.957-3.958h0l3.958-3.958h0l3.958-3.958h0l3.957-3.958h0l3.958-3.958h0l3.687-3.687c-.141-.1-.281-.206-.422-.307l-.25.25h0l-3.957,3.957h0l-3.957,3.957h0l-3.957,3.957h0l-3.957,3.958h0l-3.958,3.958h0l-3.957,3.958h0l-3.957,3.958h0l-3.958,3.958h0l-3.957,3.958h0l-3.958,3.957h0l-3.958,3.957h0l-3.957,3.957h0l-3.958,3.958h0l-3.957,3.958h0l-3.957,3.958h0l-3.958,3.956h0l-3.957,3.957h0l-3.958,3.958h0l-3.957,3.957h0l-3.957,3.957h0l-3.957,3.957h0Z" transform="translate(-135.269 -354.531)" fill="#ffa65a"/>
                </g>
                <g id="Group_34" data-name="Group 34" transform="translate(9.585 9.589)">
                  <path id="Path_33" data-name="Path 33" d="M136.375,433.454h0l7.915-7.915h0l3.957-3.958h0l3.958-3.958h0l6.4-6.4,1.512-1.512h0l3.958-3.958h0l3.957-3.958h0l3.958-3.958h0l3.957-3.957h0l3.958-3.958h0l3.957-3.957h0l3.957-3.957h0l3.957-3.957h0l3.957-3.957h0l3.957-3.958h0l3.958-3.958h0l3.957-3.958h0l3.957-3.958,3.957-3.957h0l1.351-1.351c-.146-.1-.293-.194-.44-.289l-1.853,1.853h0l-3.957,3.957h0l-3.958,3.957-3.957,3.957h0l-3.958,3.958h0l-3.957,3.958h0l-3.957,3.958h0l-3.958,3.957h0l-3.957,3.958h0l-3.958,3.958h0l-3.958,3.957h0l-3.957,3.957h0l-3.958,3.957h0l-3.957,3.958h0l-3.957,3.958h0l-3.958,3.958h0l-3.957,3.956h0l-3.958,3.957h0l-3.958,3.958h0l-3.957,3.957h0l-3.957,3.957h0l-2.025,2.025c.1.147.193.294.29.44Z" transform="translate(-133.408 -352.67)" fill="#ffa65a"/>
                </g>
                <g id="Group_35" data-name="Group 35" transform="translate(12.886 12.891)">
                  <path id="Path_34" data-name="Path 34" d="M137.566,441.24l3.3-3.3h0l3.957-3.957h0l3.957-3.958h0l3.958-3.957h0l3.957-3.958h0l3.958-3.958h0l3.958-3.958h0l3.957-3.957h0l3.958-3.958h0l3.957-3.957h0l3.958-3.958h0l3.957-3.957h0l3.957-3.958h0l3.957-3.957h0l3.957-3.957h0l3.957-3.957h0l3.958-3.958h0l3.957-3.958h0l3.957-3.957,3.957-3.958h0l3.957-3.958h0l1.971-1.97c-.135-.109-.269-.218-.4-.326l-2.508,2.508h0l-3.957,3.957h0l-3.957,3.957h0l-3.958,3.957-3.957,3.958h0l-3.958,3.958h0l-3.957,3.958h0l-3.957,3.958h0l-3.958,3.958h0l-3.957,3.957h0l-3.958,3.957h0l-3.958,3.957h0l-3.957,3.957h0l-3.958,3.958h0l-3.957,3.958h0l-3.957,3.956h0l-3.958,3.957h0l-7.915,7.915h0L143.88,434.2h0l-3.957,3.957h0l-2.681,2.682C137.348,440.972,137.458,441.105,137.566,441.24Z" transform="translate(-137.24 -356.503)" fill="#ffa65a"/>
                </g>
                <g id="Group_36" data-name="Group 36" transform="translate(6.678 6.682)">
                  <path id="Path_35" data-name="Path 35" d="M131.007,429.241l-.974.974q.125.239.252.478l1.665-1.665h0l3.957-3.957h0l3.958-3.958h0l3.957-3.958h0l3.957-3.958h0l3.958-3.957h0l3.957-3.957h0l3.958-3.958h0l3.958-3.958h0l3.957-3.957h0l3.958-3.958h0l3.957-3.957h0l3.958-3.957h0l3.957-3.957h0l3.957-3.958h0l3.957-3.957h0l3.957-3.958h0l3.957-3.958h0l3.958-3.958h0l3.957-3.957h0l3.957-3.957.338-.339c-.158-.084-.317-.169-.477-.252l-.8.8h0l-3.958,3.957-3.957,3.957h0l-3.958,3.957h0l-3.957,3.957h0l-3.957,3.958h0l-3.958,3.957h0l-3.957,3.958h0l-3.958,3.958h0l-3.958,3.958h0l-3.957,3.958h0l-3.958,3.957h0l-3.957,3.957h0l-3.957,3.957h0l-3.958,3.958h0l-3.957,3.957h0l-3.958,3.958h0l-3.957,3.956h0l-3.957,3.957h0l-7.722,7.722-.192.193Z" transform="translate(-130.033 -349.295)" fill="#ffa65a"/>
                </g>
                <g id="Group_37" data-name="Group 37" transform="translate(5.383 5.386)">
                  <path id="Path_36" data-name="Path 36" d="M131.741,424.862h0l3.957-3.958h0l3.958-3.958h0l3.957-3.958h0l3.957-3.957h0l3.958-3.958h0l3.957-3.957h0l3.958-3.958h0L163.4,393.2h0l3.957-3.958h0l3.958-3.957h0l3.957-3.957,3.958-3.957h0l3.958-3.958h0l3.957-3.958h0l3.957-3.957,3.957-3.958h0l3.957-3.958h0l3.958-3.957h0l3.958-3.957h0l1.653-1.654c-.165-.078-.331-.156-.5-.233l-2.1,2.1h0l-3.957,3.957h0l-3.958,3.957h0l-3.958,3.957h0l-3.957,3.957h0l-3.958,3.957-3.957,3.958h0l-3.958,3.958h0l-3.958,3.958h0l-3.957,3.958h0l-3.958,3.958h0l-3.957,3.957h0l-3.957,3.957h0l-3.958,3.957h0l-3.957,3.957h0l-3.958,3.958h0l-3.958,3.958h0l-3.957,3.956h0l-3.957,3.957h0l-3.958,3.958-2.27,2.27c.077.166.155.332.233.5Z" transform="translate(-128.529 -347.79)" fill="#ffa65a"/>
                </g>
                <g id="Group_38" data-name="Group 38" transform="translate(8.081 8.085)">
                  <path id="Path_37" data-name="Path 37" d="M131.932,433.454l.243-.243h0l3.957-3.958h0l3.958-3.957h0l3.957-3.958h0l3.957-3.958h0l3.958-3.958h0l3.957-3.957h0l3.958-3.957h0l3.957-3.958h0l3.957-3.958h0l3.958-3.957h0l3.957-3.958h0l3.958-3.957h0l3.958-3.957h0l3.957-3.957h0l3.957-3.957L195.5,369.9h0l3.957-3.958h0l3.958-3.958h0l3.958-3.958h0l3.957-3.957h0l2.874-2.873c-.153-.09-.306-.182-.459-.271l-3.358,3.358h0l-3.957,3.957h0l-3.957,3.957h0l-3.958,3.957h0l-3.958,3.958h0l-3.957,3.958h0l-3.958,3.957h0l-3.957,3.958h0l-3.958,3.958h0l-3.958,3.958h0l-3.957,3.957h0l-3.958,3.957h0l-3.957,3.957h0l-3.957,3.958h0l-3.958,3.958h0l-7.915,7.914h0l-3.957,3.957h0l-3.957,3.958h0l-3.957,3.957h0L131.662,433C131.751,433.15,131.842,433.3,131.932,433.454Z" transform="translate(-131.662 -350.923)" fill="#ffa65a"/>
                </g>
                <g id="Group_39" data-name="Group 39" transform="translate(1.686 1.685)">
                  <path id="Path_38" data-name="Path 38" d="M127.189,384.7h0l3.958-3.957h0l3.957-3.957h0l3.958-3.957,3.957-3.958h0l3.957-3.958h0l3.958-3.958h0l3.957-3.958,3.958-3.957h0l3.958-3.957h0l3.957-3.957h0l1.631-1.631c-.324.078-.649.158-.971.241l-1.6,1.6h0l-3.957,3.957h0l-3.957,3.957h0l-3.958,3.957h0l-3.957,3.957-3.958,3.957h0l-3.958,3.958h0l-3.957,3.958h0l-3.957,3.957h0l-3.957,3.958h0l-3.957,3.958h0l-1.768,1.768c-.084.322-.163.647-.242.971Z" transform="translate(-124.237 -343.493)" fill="#ffa65a"/>
                </g>
                <g id="Group_40" data-name="Group 40" transform="translate(1.415 1.417)">
                  <path id="Path_39" data-name="Path 39" d="M127.145,412.352h0L131.1,408.4h0l3.957-3.958h0l3.958-3.957h0l3.957-3.958h0l3.957-3.957h0l3.958-3.958h0l3.957-3.957h0l3.958-3.957h0l3.957-3.957h0l3.957-3.958h0l3.958-3.958h0l3.957-3.957,3.958-3.958h0l3.958-3.958h0l3.957-3.957h0l3.957-3.957,3.957-3.957h0l1.766-1.766c-.2-.046-.4-.088-.6-.133l-2.111,2.111h0l-3.957,3.957h0l-3.958,3.957-3.957,3.957h0l-3.958,3.957h0l-3.958,3.957h0l-3.957,3.957-3.958,3.958h0l-3.957,3.958h0l-3.957,3.958h0l-3.958,3.958h0l-3.957,3.958h0l-3.958,3.957h0l-3.958,3.957h0l-3.957,3.957h0l-3.957,3.957h0l-3.957,3.958h0l-3.957,3.958h0l-2.28,2.279c.044.2.086.4.133.6Z" transform="translate(-123.923 -343.182)" fill="#ffa65a"/>
                </g>
                <g id="Group_41" data-name="Group 41" transform="translate(3.137 3.14)">
                  <path id="Path_40" data-name="Path 40" d="M126.111,421.855l1.311-1.311h0l3.957-3.958h0l3.957-3.958h0l3.958-3.957h0l3.957-3.958h0l3.957-3.958h0l3.958-3.958h0l3.957-3.957h0l3.958-3.958h0l3.957-3.957h0L167,380.972h0l3.958-3.957h0l3.957-3.957,3.958-3.958h0l3.958-3.958h0l3.957-3.958h0l3.957-3.958,3.957-3.957h0l3.957-3.957h0l3.943-3.943c-.18-.063-.359-.128-.54-.189l-.388.388h0l-3.958,3.957h0l-3.958,3.957h0l-3.957,3.957h0l-3.958,3.957-3.957,3.957h0l-3.958,3.958h0l-3.958,3.958h0l-3.957,3.957h0l-3.958,3.958h0l-3.957,3.958h0l-3.957,3.958h0l-3.958,3.957h0l-3.957,3.957h0l-3.958,3.957h0l-3.958,3.958h0l-3.957,3.958h0l-5.936,5.936-1.979,1.978h0l-3.957,3.957h0l-.558.558C125.983,421.495,126.049,421.674,126.111,421.855Z" transform="translate(-125.922 -345.182)" fill="#ffa65a"/>
                </g>
                <g id="Group_42" data-name="Group 42" transform="translate(2.206 2.209)">
                  <path id="Path_41" data-name="Path 41" d="M127.273,416.437h0l3.958-3.958h0l3.957-3.957h0l3.958-3.957h0l3.957-3.958h0l3.957-3.958h0l3.958-3.957h0l3.957-3.958h0l3.958-3.957h0l3.958-3.957h0l3.957-3.957h0l3.958-3.958h0l3.957-3.957h0l3.958-3.958h0l3.957-3.958h0l3.957-3.958h0l3.957-3.957h0l3.957-3.957h0l3.957-3.957h0l.945-.944c-.189-.055-.378-.11-.568-.163l-1.32,1.32h0l-3.957,3.957h0l-3.957,3.957h0l-3.958,3.957h0l-3.957,3.957h0l-3.958,3.957h0l-3.958,3.958h0l-3.957,3.957h0l-3.958,3.957h0l-3.957,3.958h0l-3.957,3.958h0l-3.958,3.958h0l-3.957,3.957h0l-3.958,3.957h0l-3.957,3.957h0l-3.957,3.958h0l-3.957,3.957h0l-3.957,3.958h0l-3.957,3.956h0l-1.489,1.489c.053.19.108.379.163.568Z" transform="translate(-124.841 -344.101)" fill="#ffa65a"/>
                </g>
                <g id="Group_43" data-name="Group 43" transform="translate(4.2 4.203)">
                  <path id="Path_42" data-name="Path 42" d="M127.368,424.9l.226-.226h0l3.957-3.958h0l3.957-3.958h0l7.626-7.626.289-.289h0l3.957-3.958h0l3.958-3.958h0l3.957-3.958h0l3.958-3.957h0l3.958-3.958h0l3.957-3.957h0l3.958-3.957h0l3.957-3.957h0l3.958-3.958h0L183,369.271h0l3.957-3.958h0l3.957-3.958h0l3.957-3.958h0l3.957-3.957h0l3.958-3.957h0l2.858-2.858c-.173-.07-.345-.142-.519-.211l-3.282,3.282h0l-3.958,3.957h0l-3.957,3.957h0l-3.957,3.957h0l-3.958,3.957h0l-3.957,3.958h0l-3.958,3.958h0l-3.958,3.958h0l-3.957,3.957h0l-3.958,3.958h0l-3.957,3.958h0l-3.957,3.957h0l-3.958,3.957h0l-3.957,3.957h0l-3.958,3.958h0l-3.957,3.958h0l-3.957,3.958h0l-3.957,3.956h0l-3.957,3.957h0l-3.452,3.453C127.225,424.553,127.3,424.724,127.368,424.9Z" transform="translate(-127.156 -346.417)" fill="#ffa65a"/>
                </g>
                <g id="Group_44" data-name="Group 44" transform="translate(0.181 0.181)">
                  <path id="Path_43" data-name="Path 43" d="M122.989,396.324h0l3.958-3.957h0l3.958-3.958h0l3.957-3.957h0l3.958-3.957,3.957-3.957h0l3.957-3.958h0l3.958-3.958h0l3.957-3.957,3.958-3.958h0l3.958-3.958h0l3.957-3.957h0l3.958-3.957h0l3.957-3.957h0l3.134-3.134c-.268.022-.534.047-.8.071l-3.276,3.276h0l-3.957,3.957h0l-3.958,3.957h0l-3.957,3.957h0l-3.957,3.957h0l-3.958,3.957h0l-3.957,3.957-3.958,3.958h0l-3.957,3.958h0l-3.957,3.958h0l-3.957,3.958h0l-3.957,3.958h0L126,392.58h0l-3.443,3.442c-.025.267-.05.533-.071.8Z" transform="translate(-122.49 -341.747)" fill="#ffa65a"/>
                </g>
              </g>
            </g>
          </g>
        </g>
      </g>
      <g id="Group_50" data-name="Group 50" transform="translate(176.754)">
        <rect id="Rectangle_3" data-name="Rectangle 3" width="94.278" height="156.116" fill="#007bff" stroke="#000" stroke-linecap="round" stroke-linejoin="round" stroke-width="1"/>
      </g>
      <g id="Group_51" data-name="Group 51" transform="translate(281.826 26.682)">
        <rect id="Rectangle_4" data-name="Rectangle 4" width="70.912" height="129.455" transform="translate(0.171 0.519)" fill="#dedede"/>
      </g>
      <g id="Group_52" data-name="Group 52" transform="translate(363.902 75.782)">
        <rect id="Rectangle_6" data-name="Rectangle 6" width="70.913" height="80.487" fill="#fff" stroke="#000" stroke-linecap="round" stroke-linejoin="round" stroke-width="1"/>
      </g>
      <g id="Group_53" data-name="Group 53" transform="translate(14.366 91.864)">
        <rect id="Rectangle_7" data-name="Rectangle 7" width="50.186" height="64.5" fill="#fff" stroke="#000" stroke-linecap="round" stroke-linejoin="round" stroke-width="1"/>
      </g>
    </g>
    <g id="Group_100" data-name="Group 100" transform="translate(77.691 93.666)">
      <g id="Group_99" data-name="Group 99" transform="translate(0 44.791)">
        <g id="Group_55" data-name="Group 55" transform="translate(39.816 39.82)">
          <path id="Path_44" data-name="Path 44" d="M166.3,196.23l-1.046,1.047h0l-2.572,2.571h0l-2.572,2.572h0l-2.572,2.571h0l-2.571,2.571h0l-2.572,2.572-2.571,2.572h0l-2.572,2.572h0l-2.572,2.571h0l-5.018,5.018-.126.126h0l-2.571,2.572h0l-2.571,2.571h0l-2.571,2.572h0l-2.572,2.572h0l-1.164,1.163.488-.013,1.288-1.288h0l2.572-2.572h0L135,228h0l2.571-2.572h0l2.571-2.571h0l2.572-2.572h0l2.572-2.571h0l2.572-2.572h0l2.572-2.572h0L153,210h0l2.571-2.571h0l2.572-2.572h0l2.572-2.572h0l2.572-2.571h0l2.572-2.572h0l.419-.419C166.289,196.556,166.294,196.393,166.3,196.23Z" transform="translate(-128.082 -196.23)" fill="#007bff"/>
        </g>
        <g id="Group_56" data-name="Group 56" transform="translate(42.537 42.541)">
          <path id="Path_45" data-name="Path 45" d="M166.586,199.39l-.9.9h0l-2.572,2.572h0l-2.572,2.571h0L157.974,208h0l-5.018,5.018-.125.126h0l-2.571,2.572h0l-2.572,2.571h0l-2.572,2.572h0l-2.572,2.572h0L139.971,226h0l-2.571,2.571h0l-2.572,2.572h0l-2.571,2.572h0l-1.015,1.014c.175-.016.35-.03.523-.048l3.55-3.551.125-.125h0l2.571-2.571h0l2.571-2.572h0l2.572-2.571h0l2.572-2.572h0l2.572-2.571h0l2.571-2.572h0l2.572-2.572h0l2.571-2.571h0l2.572-2.572h0l2.572-2.572h0l2.572-2.572h0l2.572-2.571h0l.235-.235C166.556,199.739,166.57,199.564,166.586,199.39Z" transform="translate(-131.241 -199.39)" fill="#007bff"/>
        </g>
        <g id="Group_57" data-name="Group 57" transform="translate(57.103 57.107)">
          <path id="Path_46" data-name="Path 46" d="M148.152,232.8q.525-.275,1.04-.565l1.452-1.451h0l2.571-2.572h0l2.572-2.571h0l2.571-2.572h0l2.572-2.571h0l2.572-2.572h0l.582-.581q.289-.516.565-1.041l-1.76,1.76h0l-2.572,2.571h0l-5.018,5.018-.125.126h0l-2.571,2.572h0l-2.572,2.571h0Z" transform="translate(-148.152 -216.3)" fill="#007bff"/>
        </g>
        <g id="Group_58" data-name="Group 58" transform="translate(52.478 52.481)">
          <path id="Path_47" data-name="Path 47" d="M142.782,234.106q.384-.142.765-.292l1.208-1.208h0l2.572-2.571h0l2.572-2.572h0l2.572-2.571h0l2.571-2.572h0l2.571-2.571h0l2.572-2.572h0l2.572-2.572h0l2.572-2.571h0l.339-.339q.15-.381.292-.767l-1.243,1.243-2.572,2.572h0l-2.572,2.572h0L157,219.886h0l-2.572,2.572-2.571,2.572h0l-2.572,2.572h0l-2.572,2.571h0Z" transform="translate(-142.782 -210.929)" fill="#007bff"/>
        </g>
        <g id="Group_59" data-name="Group 59" transform="translate(48.744 48.747)">
          <path id="Path_48" data-name="Path 48" d="M141.582,232.006h0l2.572-2.571h0l2.572-2.572h0l2.572-2.571,2.572-2.572h0l2.571-2.571h0l2.571-2.572h0L159.585,214l2.572-2.571h0l2.572-2.572h0l1.618-1.618c.059-.216.119-.432.175-.65l-2.4,2.4h0l-2.572,2.572h0l-2.572,2.572h0l-2.572,2.572h0l-2.571,2.571h0l-2.571,2.572h0l-2.572,2.572h0L146.114,227h0l-2.572,2.571h0l-2.572,2.572-2.523,2.523c.218-.055.433-.115.649-.175Z" transform="translate(-138.447 -206.594)" fill="#007bff"/>
        </g>
        <g id="Group_60" data-name="Group 60" transform="translate(45.486 45.49)">
          <path id="Path_49" data-name="Path 49" d="M138.486,231.481h0l2.571-2.571h0l2.572-2.572h0l5.018-5.018.126-.125h0l2.572-2.571h0l2.571-2.572h0l5.143-5.143h0l2.572-2.572h0l2.572-2.572h0l2.379-2.379c.035-.19.067-.382.1-.574l-1.8,1.8-1.286,1.286h0l-2.572,2.571h0l-2.572,2.572h0l-2.572,2.572h0l-2.571,2.572h0l-2.571,2.571h0l-2.572,2.572h0L145.59,223.9h0l-2.572,2.572h0l-2.572,2.571h0l-2.572,2.572h0l-2.571,2.572h0l-.637.637c.191-.032.382-.064.573-.1l.677-.676Z" transform="translate(-134.665 -202.813)" fill="#007bff"/>
        </g>
        <g id="Group_61" data-name="Group 61" transform="translate(8.622 8.62)">
          <path id="Path_50" data-name="Path 50" d="M97.8,160.008a39.324,39.324,0,0,0-5.929,5.928l2.108-2.107h0l2.572-2.572h0Z" transform="translate(-91.867 -160.008)" fill="#007bff"/>
        </g>
        <g id="Group_98" data-name="Group 98">
          <g id="Group_62" data-name="Group 62" transform="translate(32.616 32.62)">
            <path id="Path_51" data-name="Path 51" d="M164.624,187.872l-.531.531h0l-2.572,2.572h0l-2.572,2.571h0l-2.572,2.572h0l-2.572,2.571h0l-2.571,2.572h0l-2.571,2.571h0L146.09,206.4h0l-2.572,2.572h0l-2.572,2.572h0l-2.572,2.572h0l-2.571,2.571h0l-2.572,2.572h0l-2.571,2.572h0l-2.572,2.572h0l-2.572,2.571h0l-2.572,2.572h0l-2.571,2.572h0l-.648.648.407.067,3.425-3.425h0l2.572-2.571h0l2.572-2.572h0l5.018-5.018.125-.125h0l2.571-2.571h0l2.571-2.572h0l2.572-2.572h0l2.572-2.571h0l2.572-2.572h0l2.571-2.572h0l2.572-2.572h0l2.571-2.571h0l2.572-2.572h0l2.572-2.571h0l2.572-2.572h0l2.557-2.557C164.67,188.142,164.646,188.007,164.624,187.872Z" transform="translate(-119.723 -187.872)" fill="#007bff"/>
          </g>
          <g id="Group_63" data-name="Group 63" transform="translate(34.881 34.885)">
            <path id="Path_52" data-name="Path 52" d="M165.3,190.5l-.838.838h0l-2.572,2.571h0l-2.572,2.572h0l-2.572,2.571h0l-3.857,3.857L151.6,204.2h0l-2.571,2.571h0l-2.572,2.572h0l-2.572,2.572h0l-2.572,2.572h0l-2.572,2.571h0l-2.572,2.572h0L133.6,222.2h0l-2.571,2.572h0l-2.572,2.571h0l-2.572,2.572h0l-2.572,2.572h0l-.955.955.432.041,1.135-1.134h0l2.572-2.572h0l2.572-2.571h0l2.572-2.572h0l2.572-2.571,2.571-2.572h0l2.571-2.571h0l2.572-2.572h0l5.144-5.143h0l2.571-2.572h0l2.571-2.572h0l4.161-4.161.982-.982h0l2.572-2.572h0l2.572-2.571h0l2.572-2.572h0l.268-.267C165.324,190.789,165.31,190.644,165.3,190.5Z" transform="translate(-122.352 -190.501)" fill="#007bff"/>
          </g>
          <g id="Group_64" data-name="Group 64" transform="translate(37.275 37.279)">
            <path id="Path_53" data-name="Path 53" d="M165.859,193.28l-1.016,1.016h0l-2.572,2.572h0l-2.572,2.571h0l-2.572,2.572h0l-2.571,2.571h0l-2.571,2.571h0l-2.571,2.572h0L146.84,212.3h0l-2.572,2.572h0l-2.572,2.571h0l-2.572,2.572-2.571,2.572h0l-2.571,2.572h0l-2.571,2.571h0l-5.144,5.144h0L125.132,234c.152.007.3.012.457.017l1.288-1.288h0l2.572-2.572h0l2.572-2.571h0l2.571-2.572h0l2.571-2.571h0l2.571-2.572h0l2.572-2.571h0l2.572-2.572h0l2.572-2.572,2.571-2.571h0l2.571-2.572h0l2.571-2.572h0l2.572-2.572h0l2.572-2.571h0l2.572-2.572h0l2.572-2.571h0l.42-.42C165.871,193.585,165.865,193.432,165.859,193.28Z" transform="translate(-125.132 -193.28)" fill="#007bff"/>
          </g>
          <g id="Group_65" data-name="Group 65" transform="translate(22.768 22.772)">
            <path id="Path_54" data-name="Path 54" d="M160.029,176.438l-.093.093h0l-2.572,2.572h0l-2.572,2.571h0l-2.572,2.572h0l-2.571,2.572h0l-2.571,2.572h0L144.5,191.96h0l-2.572,2.572h0l-2.572,2.571h0l-2.572,2.572h0l-2.571,2.571h0l-2.571,2.571h0l-2.571,2.572h0l-2.572,2.572h0l-2.572,2.572h0l-2.572,2.571h0l-2.572,2.572h0l-2.571,2.572h0l-2.572,2.572h0l-2.572,2.571h0l-2.572,2.572h0l-.208.208.326.149.37-.37.125-.125h0l2.572-2.571h0l2.572-2.572h0l2.572-2.571h0l2.571-2.572h0l2.572-2.571h0l2.572-2.572h0l2.572-2.572h0l2.572-2.571h0l2.571-2.572h0l2.571-2.572h0l2.571-2.572h0l2.572-2.571h0l2.572-2.572h0l2.572-2.571h0l2.572-2.572h0l2.571-2.571h0l2.571-2.572h0l2.572-2.571h0l2.572-2.572h0l2.2-2.2C160.129,176.655,160.079,176.547,160.029,176.438Z" transform="translate(-108.29 -176.438)" fill="#007bff"/>
          </g>
          <g id="Group_66" data-name="Group 66" transform="translate(24.568 24.572)">
            <path id="Path_55" data-name="Path 55" d="M161.224,178.868c-.044-.114-.089-.227-.133-.34l-.865.865h0l-2.572,2.571h0l-2.572,2.572h0l-2.571,2.572h0l-2.571,2.572h0l-2.571,2.571h0l-2.572,2.572h0l-2.572,2.571h0l-3.858,3.857-1.285,1.286h0l-2.571,2.571h0l-2.572,2.572h0l-2.571,2.572h0l-2.572,2.572h0l-2.572,2.571h0l-2.572,2.572h0l-2.571,2.572h0l-2.571,2.572h0l-2.572,2.571h0l-2.572,2.572h0l-.98.98c.113.046.227.09.34.134l1.252-1.252h0l2.572-2.571h0l2.572-2.572h0l5.143-5.143h0l2.572-2.571h0l2.572-2.572h0l5.143-5.143h0l2.571-2.572h0l2.571-2.572h0l2.572-2.572h0l2.572-2.571h0l2.572-2.572h0l2.571-2.571h0l2.572-2.572h0l2.571-2.571h0l2.572-2.572h0l2.572-2.571h0l2.572-2.572h0Z" transform="translate(-110.38 -178.528)" fill="#007bff"/>
          </g>
          <g id="Group_67" data-name="Group 67" transform="translate(17.791 17.795)">
            <path id="Path_56" data-name="Path 56" d="M156.49,170.66l-2.5,2.5h0l-2.571,2.572h0l-2.571,2.572h0l-2.571,2.571h0l-2.572,2.572h0l-2.572,2.572h0l-2.572,2.572h0l-2.572,2.571h0l-2.571,2.572h0l-2.571,2.571h0l-2.571,2.572h0l-2.572,2.571h0l-2.572,2.571h0l-2.572,2.572h0l-2.571,2.572h0l-2.571,2.572h0l-2.572,2.571h0l-2.572,2.572h0l-2.572,2.572h0l-2.572,2.572h0l-2.571,2.571h0l-.041.042c.1.062.192.125.289.186l.365-.365h0l2.571-2.572h0l2.572-2.571,2.572-2.572h0l2.572-2.571h0l2.572-2.572h0l5.143-5.143h0l2.572-2.572h0l2.572-2.572h0l4.161-4.161.982-.982h0l2.571-2.572h0l2.571-2.571h0l2.572-2.572h0l2.572-2.571h0l2.572-2.572h0l2.571-2.571h0l2.572-2.572h0l2.571-2.571h0l2.572-2.572h0l2.072-2.072C156.614,170.851,156.552,170.756,156.49,170.66Z" transform="translate(-102.512 -170.66)" fill="#007bff"/>
          </g>
          <g id="Group_68" data-name="Group 68" transform="translate(19.383 19.386)">
            <path id="Path_57" data-name="Path 57" d="M157.9,172.808c-.057-.1-.115-.2-.174-.3l-.907.907h0l-2.572,2.572h0l-2.572,2.572h0l-2.571,2.571h0l-2.571,2.572h0l-2.572,2.572h0l-2.572,2.572h0l-2.572,2.571h0l-2.572,2.572h0l-2.571,2.571h0l-2.571,2.572h0l-2.571,2.571h0l-2.572,2.571h0l-2.572,2.572h0l-2.572,2.572h0l-2.571,2.572h0l-2.571,2.571h0l-2.572,2.572-2.572,2.572h0l-2.572,2.572h0l-2.572,2.571h0l-1.022,1.022c.1.058.2.117.3.174l1.334-1.333h0l2.572-2.572h0l2.572-2.571h0l2.572-2.572h0l2.572-2.571h0l2.571-2.572h0l2.572-2.572h0L124,206.707h0l2.572-2.572h0l2.572-2.572h0l2.572-2.572h0l2.571-2.571h0l2.571-2.572h0l2.572-2.571h0L142,188.706h0l2.572-2.571h0l2.572-2.572h0l2.571-2.571h0l2.571-2.572,2.572-2.571h0l2.572-2.572h0Z" transform="translate(-104.36 -172.508)" fill="#007bff"/>
          </g>
          <g id="Group_69" data-name="Group 69" transform="translate(13.394 13.397)">
            <path id="Path_58" data-name="Path 58" d="M152.684,165.809c-.073-.085-.146-.171-.22-.255l-1.753,1.754h0l-2.571,2.572h0l-2.571,2.572h0L143,175.022h0l-2.572,2.572h0l-2.572,2.571h0l-2.572,2.572h0l-2.571,2.572h0l-2.571,2.572h0l-2.571,2.571h0l-2.572,2.572h0l-2.572,2.571h0l-2.572,2.572h0l-2.571,2.571h0l-2.571,2.571h0l-2.572,2.572-2.572,2.572h0l-2.572,2.572h0l-2.572,2.571h0l-5.143,5.144h0l-1.867,1.867c.084.074.17.146.255.22l2.225-2.224h0l2.571-2.572h0l2.571-2.571h0l2.572-2.572h0l2.572-2.572h0l2.572-2.571h0l2.572-2.572h0l2.571-2.572h0l2.572-2.572h0l2.572-2.571h0l2.572-2.572h0l2.572-2.571h0l2.571-2.572h0l2.571-2.571h0l2.571-2.572h0l2.572-2.571h0l2.572-2.572,2.572-2.571h0l2.572-2.572h0l2.571-2.571h0l2.571-2.572Z" transform="translate(-97.407 -165.554)" fill="#007bff"/>
          </g>
          <g id="Group_70" data-name="Group 70" transform="translate(12.049 12.052)">
            <path id="Path_59" data-name="Path 59" d="M151.251,164.238c-.077-.082-.152-.164-.229-.245l-.527.526-2.571,2.572h0l-2.571,2.572h0l-2.572,2.572h0l-2.572,2.572h0l-2.572,2.572h0l-2.572,2.571h0l-2.571,2.572h0l-2.571,2.572h0l-2.571,2.572h0l-2.572,2.571h0l-2.572,2.572h0l-2.572,2.571h0l-2.572,2.572h0l-2.571,2.571h0l-2.572,2.571h0l-2.572,2.572h0l-2.572,2.572h0l-2.572,2.572h0l-2.571,2.571h0l-2.571,2.572h0l-2.572,2.572h0l-.64.64c.08.078.163.153.245.231l1.008-1.008h0l2.571-2.572h0l2.571-2.571h0l2.571-2.572h0l2.572-2.572,2.572-2.571h0l2.572-2.572h0l2.572-2.572h0l4.955-4.955.188-.188h0l2.572-2.572h0l2.572-2.571h0l2.572-2.572h0l2.571-2.571h0l2.571-2.572h0l2.571-2.571h0l2.572-2.572h0l2.572-2.571h0l2.572-2.572h0l2.571-2.571h0l2.572-2.572h0l2.571-2.571h0Z" transform="translate(-95.846 -163.993)" fill="#007bff"/>
          </g>
          <g id="Group_71" data-name="Group 71" transform="translate(14.798 14.801)">
            <path id="Path_60" data-name="Path 60" d="M154.066,167.45c-.069-.089-.139-.177-.208-.265l-.349.349h0l-2.572,2.572-2.571,2.572h0l-2.571,2.572h0l-2.572,2.572h0l-2.572,2.571h0l-2.572,2.572h0l-2.572,2.572h0l-2.571,2.572h0l-2.571,2.571h0l-2.571,2.572h0l-2.572,2.571h0l-2.572,2.572h0l-2.572,2.571h0l-2.571,2.571h0l-5.018,5.018-.125.126h0l-2.572,2.572h0l-2.572,2.571h0l-2.572,2.572h0l-2.572,2.572h0L99.5,221.536h0l-.463.463.266.208.809-.809h0l2.572-2.571h0l2.571-2.572h0l2.572-2.571h0l2.572-2.572h0l2.572-2.572h0l2.572-2.571h0l2.571-2.571h0l2.572-2.572h0l2.572-2.572h0l2.572-2.571h0l2.572-2.572h0l2.571-2.571h0l2.571-2.572h0l2.571-2.571h0l2.572-2.572h0l2.572-2.571h0l2.572-2.572h0l2.571-2.571h0l2.572-2.572h0l2.571-2.571h0Z" transform="translate(-99.037 -167.185)" fill="#007bff"/>
          </g>
          <g id="Group_72" data-name="Group 72" transform="translate(10.764 10.767)">
            <path id="Path_61" data-name="Path 61" d="M149.768,162.735c-.08-.078-.159-.158-.24-.234l-1.811,1.811h0l-2.571,2.572h0l-2.572,2.572h0L140,172.028h0l-2.572,2.572h0l-2.572,2.572h0l-2.571,2.571h0l-2.571,2.572h0l-2.571,2.572h0l-2.572,2.572h0L122,190.028h0l-2.572,2.572h0l-2.571,2.571h0L113,199.028l-1.286,1.286h0l-2.572,2.571h0l-2.572,2.572h0l-2.572,2.572h0l-2.572,2.572h0l-2.571,2.571h0l-2.572,2.572h0l-1.925,1.925c.077.081.156.16.234.24l2.3-2.3h0l2.571-2.571h0l2.571-2.572h0l5.143-5.143h0l2.572-2.572h0l2.572-2.572h0l2.572-2.572h0l2.571-2.571h0l2.572-2.572h0l2.572-2.571h0l2.572-2.572h0l2.572-2.571h0l2.571-2.572h0L132.9,179.6h0l2.571-2.572h0l2.572-2.571h0l2.572-2.572,2.572-2.571h0l2.572-2.572h0l2.571-2.571h0Z" transform="translate(-94.354 -162.501)" fill="#007bff"/>
          </g>
          <g id="Group_73" data-name="Group 73" transform="translate(0.506 0.506)">
            <path id="Path_62" data-name="Path 62" d="M125.49,152.375h0l-2.572,2.572h0l-2.572,2.572h0l-2.572,2.572h0l-2.572,2.572h0l-2.571,2.572h0l-2.572,2.572h0l-2.572,2.572h0l-2.572,2.572h0l-2.572,2.572h0l-2.572,2.571h0L97.2,180.662h0l-2.572,2.572h0l-2.572,2.572h0l-2.572,2.571h0l-2.572,2.572h0l-2.571,2.571h0l-1.895,1.9c.022.135.044.271.067.407l2.44-2.44h0l2.572-2.572h0l2.572-2.571h0l2.572-2.572h0L95.24,183.1h0l2.572-2.572h0l2.571-2.571h0l2.571-2.572,2.572-2.571h0l2.572-2.572h0l2.572-2.571h0l2.572-2.572h0l2.571-2.571h0l2.572-2.572h0l2.572-2.572h0l2.572-2.572h0l2.572-2.571h0l1.58-1.581-.407-.067Z" transform="translate(-82.445 -150.589)" fill="#007bff"/>
          </g>
          <g id="Group_74" data-name="Group 74" transform="translate(0.203 0.202)">
            <path id="Path_63" data-name="Path 63" d="M122.869,152.326,120.3,154.9h0l-2.572,2.572h0l-2.571,2.572h0l-2.571,2.572-2.572,2.572h0l-2.572,2.572h0l-2.572,2.572h0l-2.572,2.572h0l-2.572,2.572h0l-2.571,2.571h0l-2.572,2.572h0l-2.572,2.572h0l-2.572,2.572h0l-2.572,2.571h0L84.292,190.9h0l-2.2,2.2c.015.142.032.283.048.426l.19-.19h0l2.572-2.572h0l2.572-2.571h0l2.572-2.572h0l2.572-2.571h0l2.572-2.572h0l2.571-2.571h0l2.571-2.572h0l2.571-2.571h0l2.572-2.572h0l2.572-2.571h0l2.572-2.572h0l2.572-2.571h0l2.571-2.572,2.572-2.572h0l2.572-2.572h0l2.572-2.571h0l1.9-1.9c-.142-.016-.283-.034-.426-.049Z" transform="translate(-82.093 -150.236)" fill="#007bff"/>
          </g>
          <g id="Group_75" data-name="Group 75" transform="translate(0.032 0.032)">
            <path id="Path_64" data-name="Path 64" d="M120.27,152.3h0L117.7,154.87h0l-2.572,2.572h0l-2.571,2.572h0l-2.572,2.572h0l-2.572,2.572h0l-2.572,2.572h0l-2.572,2.572h0l-2.572,2.572h0l-2.571,2.572h0l-2.572,2.571h0l-2.572,2.572h0l-2.572,2.572h0l-2.572,2.572h0L84.264,188.3h0l-2.37,2.37c.006.152.012.3.02.455l.39-.391h0l2.572-2.571h0l2.572-2.572h0l2.572-2.571h0l2.572-2.572h0l2.572-2.571h0l2.572-2.572h0l2.571-2.571h0l2.571-2.572,2.572-2.571h0l2.572-2.572h0l2.572-2.571h0l2.572-2.572h0l2.571-2.571h0l2.572-2.572h0l2.572-2.571h0l2.1-2.1c-.151-.009-.3-.014-.454-.02Z" transform="translate(-81.894 -150.038)" fill="#007bff"/>
          </g>
          <g id="Group_76" data-name="Group 76">
            <path id="Path_65" data-name="Path 65" d="M117.693,152.293h0l-2.571,2.572h0l-2.571,2.572-2.572,2.572h0l-2.572,2.572h0l-2.572,2.572h0l-2.572,2.572h0l-2.572,2.572h0l-2.571,2.572h0l-2.572,2.572h0l-2.572,2.571h0L89.4,180.581h0l-2.572,2.572h0l-2.571,2.572h0l-2.4,2.395c0,.16,0,.32-.006.481l.442-.442h0l2.572-2.572h0l2.572-2.571h0l2.572-2.572h0l2.572-2.571h0l2.572-2.572h0l2.571-2.571h0l2.571-2.572h0l2.571-2.571h0l2.572-2.572h0l2.572-2.571h0l2.572-2.572h0l2.572-2.572h0l2.571-2.572,2.572-2.571h0L120.459,150c-.16,0-.32,0-.48.006Z" transform="translate(-81.857 -150.001)" fill="#007bff"/>
          </g>
          <g id="Group_77" data-name="Group 77" transform="translate(0.457 0.456)">
            <path id="Path_66" data-name="Path 66" d="M112.623,152.366l-2.572,2.572h0l-2.572,2.572h0l-2.572,2.572h0l-2.572,2.572h0l-2.572,2.572h0L97.192,167.8h0l-2.572,2.572h0l-2.572,2.572h0l-2.572,2.572h0L86.9,178.082h0l-2.571,2.572h0l-1.85,1.85c-.032.189-.065.379-.094.568l2.557-2.557h0l2.572-2.571h0l2.572-2.572h0l2.572-2.571h0l2.572-2.572h0l2.571-2.571h0l2.571-2.572h0l2.571-2.571h0l2.572-2.572h0l2.572-2.572h0l2.572-2.572h0l2.572-2.571h0l1.7-1.7c-.19.03-.38.063-.568.095Z" transform="translate(-82.388 -150.53)" fill="#007bff"/>
          </g>
          <g id="Group_78" data-name="Group 78" transform="translate(30.462 30.466)">
            <path id="Path_67" data-name="Path 67" d="M118.065,231.635l2.571-2.572h0l2.572-2.571h0l2.572-2.572h0l2.572-2.571h0l2.572-2.572h0l2.571-2.571h0l2.571-2.572h0l2.571-2.572h0l2.572-2.571h0l2.572-2.571h0l2.572-2.572h0l2.572-2.572h0L151.5,198.2h0l2.571-2.572h0l2.572-2.571h0l2.572-2.572h0l2.572-2.571h0l2.158-2.158c-.028-.13-.056-.26-.085-.389l-.113.114h0l-2.572,2.572h0l-2.572,2.572h0L156.03,193.2h0l-2.572,2.572h0l-2.571,2.571h0l-2.571,2.572h0l-2.572,2.571h0l-2.572,2.571h0l-5.018,5.018-.126.126h0l-2.571,2.572h0l-2.571,2.571h0l-2.571,2.572h0l-2.572,2.572h0l-2.572,2.572h0l-2.572,2.571h0l-2.572,2.572h0l-2.571,2.572h0l-.231.23.39.084.453-.452Z" transform="translate(-117.222 -185.371)" fill="#007bff"/>
          </g>
          <g id="Group_79" data-name="Group 79" transform="translate(28.407 28.411)">
            <path id="Path_68" data-name="Path 68" d="M117.735,228.732h0l2.571-2.571h0l2.572-2.572h0l2.572-2.571h0l2.572-2.572h0l2.572-2.571h0l2.571-2.572h0l2.571-2.572h0l2.571-2.571h0l2.572-2.572h0l2.572-2.572h0l2.572-2.572h0l2.571-2.571h0l2.572-2.572h0l2.571-2.571h0l2.572-2.572h0l2.572-2.571h0l2.572-2.572h0l1.656-1.656c-.034-.125-.065-.25-.1-.374l-2.168,2.169h0l-2.572,2.572h0L155.7,190.3h0l-2.571,2.571h0l-2.571,2.572h0l-2.571,2.571h0l-2.572,2.572h0l-2.572,2.571h0l-2.572,2.571h0L137.7,208.3l-2.571,2.572h0l-2.571,2.572h0l-2.571,2.571h0l-5.144,5.144h0l-2.572,2.572h0l-2.571,2.571h0l-4.856,4.856c.124.035.25.067.374.1Z" transform="translate(-114.837 -182.985)" fill="#007bff"/>
          </g>
          <g id="Group_80" data-name="Group 80" transform="translate(26.445 26.449)">
            <path id="Path_69" data-name="Path 69" d="M114.847,228.417h0l2.572-2.571h0l2.571-2.572h0l2.572-2.571h0l2.572-2.572h0l2.572-2.571h0l2.572-2.572h0l2.572-2.572,2.571-2.571h0l2.571-2.572h0l2.572-2.572h0l4.161-4.161.983-.982h0l2.572-2.572h0l2.571-2.571h0l2.571-2.572h0L156,187.271h0l2.572-2.572h0l2.572-2.571h0l1.064-1.064c-.039-.119-.078-.239-.117-.357l-1.559,1.559h0l-2.572,2.572h0l-2.572,2.572h0l-2.572,2.572h0l-2.571,2.571h0l-2.571,2.572h0L145.1,197.7h0l-2.572,2.572h0l-2.572,2.571h0l-2.572,2.571h0l-2.572,2.572h0l-2.571,2.572h0l-2.571,2.572h0l-2.572,2.571h0l-2.572,2.572h0l-2.572,2.572h0l-2.571,2.572h0l-2.571,2.571h0l-2.572,2.572-1.675,1.674c.119.04.239.078.357.118Z" transform="translate(-112.559 -180.707)" fill="#007bff"/>
          </g>
          <g id="Group_81" data-name="Group 81" transform="translate(2.173 2.171)">
            <path id="Path_70" data-name="Path 70" d="M108.351,152.522q-.372.129-.741.266l-2.426,2.426h0l-2.572,2.572h0l-2.572,2.572h0l-2.571,2.572h0L94.9,165.5h0l-2.572,2.572h0l-2.572,2.572h0l-2.572,2.572h0l-2.534,2.534c-.091.245-.179.493-.266.741l.841-.842h0l2.572-2.571h0l2.572-2.572h0l2.572-2.571h0l2.572-2.572h0l2.571-2.571h0l2.571-2.572h0l2.571-2.571h0l2.572-2.572h0Z" transform="translate(-84.38 -152.522)" fill="#007bff"/>
          </g>
          <g id="Group_82" data-name="Group 82" transform="translate(21.041 21.044)">
            <path id="Path_71" data-name="Path 71" d="M108.833,224.975h0L111.4,222.4h0l2.572-2.571h0l2.572-2.572h0l2.571-2.571h0l2.572-2.572h0l2.572-2.572h0l2.572-2.571h0l2.572-2.571h0l2.571-2.572h0l2.571-2.572h0l2.571-2.571h0l2.572-2.572h0l2.572-2.571h0l2.572-2.572h0l2.571-2.571h0l2.572-2.572h0l2.571-2.571h0l2.572-2.572h0l2.572-2.571h0l1.37-1.37c-.053-.1-.108-.208-.162-.313l-1.821,1.821h0l-2.572,2.572h0l-2.571,2.571h0l-2.571,2.572h0l-2.571,2.572h0l-2.572,2.572h0l-2.572,2.571h0l-2.572,2.572h0l-2.572,2.571h0L133.94,199.4h0l-2.571,2.571h0L128.8,204.54h0l-5.144,5.144h0l-2.572,2.572h0l-2.571,2.571h0l-5.018,5.018-.125.126h0l-2.572,2.572h0l-2.572,2.571h0l-1.935,1.936c.1.054.208.109.313.162Z" transform="translate(-106.285 -174.432)" fill="#007bff"/>
          </g>
          <g id="Group_83" data-name="Group 83" transform="translate(4.042 4.04)">
            <path id="Path_72" data-name="Path 72" d="M103.236,155.191l-.324.324h0l-2.572,2.572-2.571,2.572h0L95.2,163.23h0L92.625,165.8h0l-2.572,2.572-2.572,2.572h0l-.431.431q-.257.484-.5.975l1.544-1.544h0l2.572-2.571h0l2.572-2.572,2.572-2.571h0l2.572-2.572h0l2.571-2.572h0l2.571-2.572.686-.686Q103.719,154.935,103.236,155.191Z" transform="translate(-86.55 -154.691)" fill="#007bff"/>
          </g>
          <g id="Group_84" data-name="Group 84" transform="translate(16.264 16.267)">
            <path id="Path_73" data-name="Path 73" d="M102.92,221.634h0l5.018-5.018.125-.125h0l2.572-2.571h0l2.572-2.572h0l2.572-2.572h0l2.571-2.571h0l2.572-2.572h0l2.572-2.572h0l2.572-2.572h0l2.572-2.571h0l2.571-2.572h0l2.571-2.571h0l2.571-2.572h0l2.572-2.571h0l2.572-2.572h0l2.572-2.571h0l2.572-2.572h0l2.571-2.571h0l2.571-2.572,2.572-2.571h0l1.041-1.04c-.065-.093-.132-.185-.2-.277l-1.455,1.455h0l-2.571,2.572h0l-2.571,2.572h0l-2.571,2.572h0l-2.572,2.571h0l-2.572,2.572h0l-2.572,2.572h0l-2.572,2.572h0l-2.571,2.571h0l-2.571,2.572h0l-2.571,2.571h0l-5.144,5.143h0l-2.572,2.571h0l-2.572,2.572h0l-2.571,2.572h0l-2.572,2.572h0l-2.572,2.571h0l-2.572,2.572h0L104.88,219.2h0l-2.572,2.572h0l-1.569,1.569.276.2Z" transform="translate(-100.739 -168.886)" fill="#007bff"/>
          </g>
          <g id="Group_85" data-name="Group 85" transform="translate(9.539 9.542)">
            <path id="Path_74" data-name="Path 74" d="M92.932,216.125c.073.084.149.167.223.252l.967-.967h0l2.572-2.571h0l2.571-2.572h0l2.572-2.572h0l2.571-2.571h0l2.572-2.572h0l2.572-2.572h0l2.572-2.572h0l2.572-2.571h0l2.571-2.572h0l2.572-2.571h0l2.572-2.572h0l2.572-2.571h0l2.572-2.572h0l2.571-2.571h0l2.571-2.572h0l2.571-2.571h0l2.572-2.572h0l2.572-2.571h0l2.572-2.572h0l2.571-2.571h0l2.572-2.572h0l.1-.1c-.084-.074-.166-.149-.251-.222l-.465.465h0l-2.571,2.572h0l-2.572,2.572h0l-2.572,2.572h0l-2.572,2.572h0l-2.572,2.572h0l-2.571,2.572h0l-2.571,2.571h0l-2.571,2.572h0l-2.572,2.572h0L121.8,187.26h0l-2.572,2.571h0l-2.572,2.572h0l-2.571,2.571h0l-2.572,2.572h0l-2.572,2.571h0l-2.572,2.571h0L103.8,205.26h0l-2.572,2.572h0L98.654,210.4h0l-2.572,2.571h0l-2.572,2.572h0Z" transform="translate(-92.932 -161.079)" fill="#007bff"/>
          </g>
          <g id="Group_86" data-name="Group 86" transform="translate(7.271 7.273)">
            <path id="Path_75" data-name="Path 75" d="M90.3,212.884c.066.092.134.183.2.275l.687-.687h0l2.572-2.572h0l2.572-2.572h0l2.571-2.571h0l2.571-2.572h0l2.571-2.572h0l2.572-2.572h0l2.572-2.571h0l2.572-2.572h0l2.572-2.571h0l2.571-2.572h0l2.572-2.571h0l2.572-2.572h0l2.572-2.571h0l2.572-2.572,2.571-2.571h0l2.571-2.572h0l2.571-2.571h0l2.572-2.572h0l2.572-2.571h0l2.572-2.572h0l2.4-2.4c-.091-.067-.182-.134-.274-.2l-.162.162h0l-2.572,2.572h0l-2.572,2.572h0l-2.572,2.572h0l-2.572,2.572h0l-2.571,2.572h0l-2.571,2.572h0l-2.571,2.572h0l-2.572,2.571h0l-2.572,2.572h0l-2.572,2.572h0l-2.572,2.572h0l-2.571,2.571h0l-2.572,2.572h0l-2.572,2.571h0L106,197.181h0l-2.572,2.571h0l-2.571,2.571h0L98.289,204.9h0l-2.572,2.572h0l-2.572,2.572h0l-2.572,2.571h0Z" transform="translate(-90.298 -158.445)" fill="#007bff"/>
          </g>
          <g id="Group_87" data-name="Group 87" transform="translate(6.229 6.231)">
            <path id="Path_76" data-name="Path 76" d="M91.018,209.733h0l5.144-5.143h0l2.571-2.572h0l2.571-2.572h0l4.16-4.161.983-.982h0l2.572-2.572h0l2.572-2.571h0l2.572-2.572h0l2.571-2.571h0l2.572-2.572h0l2.572-2.571h0l2.572-2.572h0l2.572-2.571h0l2.571-2.572h0l2.571-2.571h0l2.571-2.572h0l2.572-2.571h0l2.572-2.572,2.572-2.572h0l.878-.878c-.1-.063-.19-.127-.286-.189l-1.2,1.2h0l-2.572,2.572h0l-2.572,2.572-2.572,2.572h0l-2.571,2.572h0l-2.571,2.572h0l-2.571,2.572h0l-2.572,2.572h0l-2.572,2.571h0l-2.572,2.572h0l-2.571,2.572h0l-2.571,2.572h0L110.98,189.3h0l-2.572,2.572h0l-2.572,2.571h0l-2.572,2.572h0l-2.571,2.571h0l-2.571,2.571h0l-2.572,2.572h0L92.977,207.3h0l-2.572,2.572h0l-1.316,1.316c.062.1.126.19.189.286Z" transform="translate(-89.089 -157.235)" fill="#007bff"/>
          </g>
          <g id="Group_88" data-name="Group 88" transform="translate(8.375 8.377)">
            <path id="Path_77" data-name="Path 77" d="M91.792,214.793l2.143-2.143h0l2.572-2.572h0l2.572-2.572h0l2.571-2.571h0l2.571-2.571h0l2.572-2.572h0l2.572-2.572h0l2.572-2.571h0l2.572-2.572h0l2.571-2.571h0l2.572-2.572h0l2.572-2.571h0l2.572-2.572h0l2.572-2.571h0l2.571-2.572h0l2.571-2.571h0l2.571-2.572h0l2.572-2.571h0l2.572-2.572,2.572-2.571h0l2.572-2.572h0l1.28-1.28c-.088-.071-.174-.142-.263-.212l-1.63,1.631h0l-2.572,2.572h0l-2.572,2.572h0l-2.572,2.572-2.572,2.572h0l-2.571,2.572h0l-2.571,2.572h0l-2.571,2.571h0l-2.572,2.572h0l-2.572,2.572h0l-2.572,2.572h0l-2.571,2.571h0l-2.571,2.572h0l-2.572,2.571h0l-2.572,2.572h0l-2.572,2.571h0L103.61,202.5h0l-5.143,5.144h0l-2.572,2.572h0l-2.572,2.571h0L91.58,214.53C91.65,214.618,91.721,214.705,91.792,214.793Z" transform="translate(-91.58 -159.726)" fill="#007bff"/>
          </g>
          <g id="Group_89" data-name="Group 89" transform="translate(4.34 4.342)">
            <path id="Path_78" data-name="Path 78" d="M87.529,206.995l-.633.633c.054.1.109.208.164.311l1.082-1.082h0l2.572-2.571h0l2.572-2.571h0l2.572-2.572h0l2.572-2.572h0L101,194h0l2.571-2.572h0l2.572-2.571h0l2.572-2.572h0l2.572-2.571h0l2.572-2.572h0l2.571-2.571h0L119,176h0l2.572-2.571h0l2.572-2.572h0l2.572-2.571h0l2.571-2.572h0l2.571-2.571h0l2.571-2.572h0L137.007,158h0l2.572-2.572.22-.22c-.1-.055-.207-.11-.31-.164l-.522.522h0l-2.572,2.572-2.572,2.572h0l-2.571,2.572h0l-2.571,2.572h0l-2.571,2.572h0l-2.572,2.572h0l-2.572,2.572h0l-2.572,2.572h0l-2.571,2.571h0l-2.571,2.572h0l-2.572,2.572h0l-2.572,2.572h0l-2.572,2.571h0l-2.572,2.572h0l-2.572,2.571h0l-2.571,2.572h0l-2.572,2.571h0l-2.572,2.571h0l-5.018,5.018-.126.126Z" transform="translate(-86.896 -155.042)" fill="#007bff"/>
          </g>
          <g id="Group_90" data-name="Group 90" transform="translate(3.499 3.5)">
            <path id="Path_79" data-name="Path 79" d="M88.006,204.15h0l2.572-2.572h0l2.572-2.572h0l2.572-2.572h0l2.571-2.571h0l2.571-2.572h0l2.571-2.571h0l2.572-2.572h0l2.572-2.571h0l2.572-2.572h0l2.572-2.571h0l2.571-2.572,2.572-2.571h0l2.572-2.572h0l2.572-2.571h0l2.572-2.572L129.156,163h0l2.571-2.572h0l2.571-2.572h0l2.572-2.572h0l1.075-1.075-.324-.151-1.364,1.364h0L133.687,158h0l-2.571,2.572h0l-2.571,2.572h0l-2.571,2.572h0l-2.572,2.572-2.572,2.572h0l-2.572,2.572h0L115.684,176h0l-2.571,2.571h0l-2.572,2.572h0l-2.572,2.572h0l-2.572,2.572h0l-2.572,2.571h0l-2.572,2.572h0L97.682,194h0l-2.572,2.572h0l-2.572,2.571h0l-2.572,2.571h0l-2.572,2.572-1.475,1.475c.049.109.1.216.151.324Z" transform="translate(-85.919 -154.064)" fill="#007bff"/>
          </g>
          <g id="Group_91" data-name="Group 91" transform="translate(5.252 5.253)">
            <path id="Path_80" data-name="Path 80" d="M88.131,209.733l.158-.158h0L90.86,207h0l2.572-2.571h0L96,201.86h0l2.571-2.572h0l2.572-2.572h0l2.571-2.571h0l2.572-2.572h0L108.863,189h0l2.572-2.572h0l2.572-2.571h0l2.571-2.572h0l2.572-2.571h0l2.572-2.572h0l2.572-2.571h0L126.867,171l2.571-2.571h0l2.571-2.572h0l2.571-2.571h0l2.572-2.572h0l2.572-2.571h0l1.867-1.867c-.1-.059-.2-.119-.3-.177l-2.182,2.182h0l-2.572,2.572h0l-2.572,2.572h0L131.4,166h0l-2.571,2.572h0l-2.571,2.572h0l-2.572,2.572h0l-2.572,2.572h0l-2.572,2.571h0l-2.572,2.572h0L113.395,184h0l-2.572,2.572h0l-2.572,2.571h0l-2.572,2.572h0l-2.572,2.571h0l-5.143,5.143h0L95.392,202h0L92.82,204.57h0l-2.572,2.572h0l-2.294,2.294C88.013,209.535,88.071,209.634,88.131,209.733Z" transform="translate(-87.954 -156.1)" fill="#007bff"/>
          </g>
          <g id="Group_92" data-name="Group 92" transform="translate(1.096 1.095)">
            <path id="Path_81" data-name="Path 81" d="M85.047,178.047h0l2.572-2.572h0l2.572-2.571h0l2.572-2.572,2.572-2.571h0l2.572-2.572h0l2.571-2.571h0l2.571-2.572,2.572-2.572h0l2.572-2.572h0l2.572-2.571h0l1.059-1.059c-.211.051-.422.1-.631.157l-1.041,1.041h0l-2.572,2.572h0l-2.572,2.572h0l-2.572,2.572h0l-2.572,2.572-2.571,2.572h0L94.723,167.9h0l-2.572,2.572h0l-2.572,2.572h0l-2.572,2.572h0l-2.571,2.571h0l-1.148,1.148c-.055.21-.106.42-.157.631Z" transform="translate(-83.13 -151.272)" fill="#007bff"/>
          </g>
          <g id="Group_93" data-name="Group 93" transform="translate(0.92 0.921)">
            <path id="Path_82" data-name="Path 82" d="M85.019,196.02h0l2.572-2.571h0l2.572-2.572h0l2.572-2.571h0l2.572-2.572h0l2.571-2.571h0l2.571-2.572h0l2.571-2.571h0l2.572-2.572h0l2.572-2.571h0l2.572-2.572h0l2.572-2.571h0l2.571-2.572,2.572-2.571h0l2.572-2.572h0l2.572-2.572h0l2.572-2.572,2.571-2.571h0l1.147-1.148-.388-.085-1.371,1.371h0l-2.571,2.572h0l-2.572,2.572-2.572,2.572h0l-2.572,2.572h0L115.27,165.3h0l-2.571,2.572-2.572,2.572h0l-2.572,2.572h0l-2.572,2.572h0l-2.572,2.571h0l-2.572,2.572h0L97.267,183.3h0l-2.572,2.572h0l-2.572,2.571h0l-2.572,2.572h0l-2.572,2.571h0l-2.572,2.572h0l-1.482,1.482c.029.129.056.259.086.388Z" transform="translate(-82.925 -151.07)" fill="#007bff"/>
          </g>
          <g id="Group_94" data-name="Group 94" transform="translate(2.039 2.04)">
            <path id="Path_83" data-name="Path 83" d="M84.347,202.195l.852-.852h0l2.572-2.572h0l2.572-2.572h0l2.572-2.571h0l2.572-2.572h0l2.571-2.571h0l2.571-2.572h0l2.571-2.571h0l2.572-2.572h0l2.572-2.571h0l2.572-2.572h0l2.572-2.571h0l2.571-2.572,2.572-2.571h0l2.572-2.572h0l2.572-2.571h0l2.572-2.572,2.571-2.572h0l2.571-2.572h0l2.562-2.563c-.116-.04-.233-.084-.351-.123l-.252.252h0l-2.571,2.572h0l-2.571,2.572h0l-2.571,2.572h0l-2.572,2.572-2.572,2.572h0l-2.572,2.572h0l-2.571,2.572h0l-2.571,2.572h0l-2.572,2.572h0l-2.572,2.571h0l-2.572,2.572h0l-2.572,2.572h0l-2.572,2.572h0l-2.571,2.571h0L94.875,191.2h0L92.3,193.767h0l-3.858,3.857-1.286,1.286h0l-2.571,2.571h0l-.363.363C84.264,201.961,84.307,202.078,84.347,202.195Z" transform="translate(-84.224 -152.369)" fill="#007bff"/>
          </g>
          <g id="Group_95" data-name="Group 95" transform="translate(1.434 1.434)">
            <path id="Path_84" data-name="Path 84" d="M85.1,198.674h0l2.572-2.572h0l2.572-2.571h0l2.572-2.572h0l2.572-2.571h0l2.572-2.572h0l2.571-2.571h0l2.571-2.572h0l2.572-2.571h0l2.572-2.572h0l2.572-2.571h0l2.572-2.572h0l2.571-2.571h0l2.572-2.572h0l2.572-2.571h0l2.572-2.572h0l2.572-2.571h0l2.571-2.572h0l2.571-2.571h0l.613-.614-.369-.106-.857.858h0l-2.571,2.572h0l-2.571,2.572h0l-2.572,2.572h0L120.5,162.81h0l-2.572,2.572h0l-2.572,2.572h0l-2.571,2.572h0l-2.572,2.572h0l-2.572,2.572h0l-2.572,2.571h0l-2.572,2.572h0l-2.572,2.572h0l-2.571,2.572h0l-2.572,2.571h0L92.205,191.1h0l-2.572,2.571h0l-2.572,2.572h0l-2.571,2.571h0l-.967.967c.034.123.07.246.105.37Z" transform="translate(-83.522 -151.666)" fill="#007bff"/>
          </g>
          <g id="Group_96" data-name="Group 96" transform="translate(2.73 2.731)">
            <path id="Path_85" data-name="Path 85" d="M85.164,204.173l.146-.146h0l2.572-2.572h0l2.572-2.572h0l4.956-4.955.188-.188h0l2.572-2.572h0l2.571-2.571h0l2.571-2.572h0l2.572-2.571h0l2.572-2.572h0l2.572-2.571h0l2.572-2.572h0l2.571-2.571h0l2.572-2.572h0l2.572-2.571h0l2.572-2.572h0l2.572-2.571h0l2.571-2.572h0l2.571-2.572h0l2.571-2.572h0l1.857-1.857-.336-.137-2.134,2.133h0l-2.571,2.572h0l-2.571,2.572h0l-2.571,2.572h0l-2.572,2.572h0l-2.572,2.572h0l-2.572,2.572h0l-2.571,2.572h0l-2.571,2.572h0l-2.572,2.571h0l-2.572,2.572h0l-2.572,2.572h0l-2.572,2.572h0l-2.572,2.571h0l-2.571,2.572h0l-2.572,2.571h0l-2.572,2.572h0l-2.572,2.571h0l-2.572,2.571h0l-2.244,2.244C85.071,203.949,85.118,204.061,85.164,204.173Z" transform="translate(-85.026 -153.172)" fill="#007bff"/>
          </g>
          <g id="Group_97" data-name="Group 97" transform="translate(0.118 0.117)">
            <path id="Path_86" data-name="Path 86" d="M82.318,185.6h0l2.572-2.571h0l2.572-2.572h0l2.572-2.571h0l2.572-2.572,2.572-2.571h0l2.572-2.572h0l2.571-2.571h0l2.571-2.572,2.572-2.571h0l2.572-2.572h0l2.572-2.572h0l2.572-2.572h0l2.571-2.571h0l2.037-2.037c-.174.014-.347.03-.52.047l-2.129,2.128h0l-2.571,2.572h0L110,157.455h0l-2.572,2.572h0l-2.572,2.572h0l-2.572,2.572h0l-2.572,2.572-2.571,2.572h0l-2.572,2.572h0l-2.572,2.572h0l-2.572,2.571h0L86.849,180.6h0l-2.571,2.572h0l-2.237,2.237c-.016.173-.033.346-.047.52Z" transform="translate(-81.994 -150.137)" fill="#007bff"/>
          </g>
        </g>
      </g>
    </g>
    <g id="Group_101" data-name="Group 101" transform="translate(158.322 66.74)">
      <path id="Path_87" data-name="Path 87" d="M180.755,244.065a2.644,2.644,0,1,1-2.644-2.644A2.644,2.644,0,0,1,180.755,244.065Z" transform="translate(-175.466 -90.958)" fill="none" stroke="#000" stroke-linecap="round" stroke-linejoin="round" stroke-width="1"/>
      <circle id="Ellipse_1" data-name="Ellipse 1" cx="2.644" cy="2.644" r="2.644" transform="translate(290.202)" fill="none" stroke="#000" stroke-linecap="round" stroke-linejoin="round" stroke-width="1"/>
      <path id="Path_88" data-name="Path 88" d="M573.331,240.57a5.289,5.289,0,1,1-5.29-5.289A5.289,5.289,0,0,1,573.331,240.57Z" transform="translate(-229.162 -90.107)" fill="none" stroke="#000" stroke-linecap="round" stroke-linejoin="round" stroke-width="1"/>
    </g>
    <g id="Group_108" data-name="Group 108" transform="translate(165.036 72.65)">
      <g id="Group_104" data-name="Group 104">
        <g id="Group_102" data-name="Group 102">
          <path id="Path_90" data-name="Path 90" d="M183.261,116.066V73.6h60.551V116.07H230.227l0,0Z" transform="translate(-183.261 -73.602)" fill="none" stroke="#000" stroke-linecap="round" stroke-linejoin="round" stroke-width="1"/>
        </g>
        <g id="Group_103" data-name="Group 103" transform="translate(11.115 15.019)">
          <line id="Line_2" data-name="Line 2" x1="34.736" fill="none" stroke="#000" stroke-linecap="round" stroke-linejoin="round" stroke-width="1"/>
          <line id="Line_3" data-name="Line 3" x1="26.163" transform="translate(8.573 12.736)" fill="none" stroke="#000" stroke-linecap="round" stroke-linejoin="round" stroke-width="1"/>
        </g>
      </g>
      <g id="Group_107" data-name="Group 107" transform="translate(209.776 74.699)">
        <g id="Group_105" data-name="Group 105">
          <path id="Path_92" data-name="Path 92" d="M519.4,225.266V160.325H426.8v64.948h20.776l.006-.007Z" transform="translate(-426.804 -160.325)" fill="none" stroke="#000" stroke-linecap="round" stroke-linejoin="round" stroke-width="1"/>
        </g>
        <g id="Group_106" data-name="Group 106" transform="translate(22.48 22.968)">
          <line id="Line_4" data-name="Line 4" x2="53.123" fill="none" stroke="#000" stroke-linecap="round" stroke-linejoin="round" stroke-width="1"/>
          <line id="Line_5" data-name="Line 5" x2="40.011" transform="translate(0 19.477)" fill="none" stroke="#000" stroke-linecap="round" stroke-linejoin="round" stroke-width="1"/>
        </g>
      </g>
    </g>
    <g id="Group_147" data-name="Group 147" transform="translate(146.929 85.498)">
      <g id="Group_109" data-name="Group 109" transform="translate(21.212 56.814)">
        <path id="Path_93" data-name="Path 93" d="M282.876,204.706l-57.417,12.5a2.943,2.943,0,0,1-3.209-1.5l-26.161-58.283a5.546,5.546,0,0,0-7.5-2.3l-1.722.915,27.162,68.353.042.08a3.634,3.634,0,0,0,4.134,1.809h0l69.951-18.235A4.473,4.473,0,0,0,282.876,204.706Z" transform="translate(-186.866 -154.477)" fill="#b9b9b9"/>
      </g>
      <g id="Group_146" data-name="Group 146" transform="translate(0 0)">
        <g id="Group_115" data-name="Group 115" transform="translate(0 124.154)">
          <g id="Group_114" data-name="Group 114" transform="translate(0 84.19)">
            <g id="Group_113" data-name="Group 113">
              <g id="Group_112" data-name="Group 112">
                <g id="Group_111" data-name="Group 111">
                  <g id="Group_110" data-name="Group 110">
                    <path id="Path_94" data-name="Path 94" d="M185.948,330.4s-4.681,9.692-8.168,11.9l-9.554,2.269a7.512,7.512,0,0,0-5.986,3.77l25.246,11.68,12.144-23.705Z" transform="translate(-162.24 -330.397)"/>
                  </g>
                </g>
              </g>
            </g>
          </g>
          <path id="Path_95" data-name="Path 95" d="M319.027,232.656s-60.115,2.259-88.316,6.539a25.808,25.808,0,0,0-19.006,13.691l-33.169,64.092,29.38,15.45,34.025-61.584L303.8,269Z" transform="translate(-164.499 -232.656)" fill="#fff" stroke="#000" stroke-linecap="round" stroke-linejoin="round" stroke-width="1"/>
        </g>
        <g id="Group_145" data-name="Group 145" transform="translate(47.328)">
          <g id="Group_117" data-name="Group 117" transform="translate(20.114 60.456)">
            <g id="Group_116" data-name="Group 116">
              <path id="Path_96" data-name="Path 96" d="M329.987,207.84a21.748,21.748,0,0,1-3.658,7.245c-14.079,17.87-43.26-3.967-67.109-3.789-3.294.025-6.215.087-6.921,1.144-1.187,1.778-2.592,4.336-3.456,4.263-.988-.084.56-3.565,1.441-6.186,0,0-2.94,7.245-4.013,6.848-1.3-.482,2.011-8.732,2.011-8.732s-4.218,8.447-5.3,7.138,3.5-8.831,3.5-8.831-4.346,6.7-5.737,6.026c-1.131-.549,2.55-5.648,6.334-9.689a15.445,15.445,0,0,1,8.369-4.646,54.691,54.691,0,0,1,14.056-.477s24.1,2.687,44.166,5.95l7.782-35.986a11.776,11.776,0,0,1,8.729-9.068c3.454-.8,7.34-.443,9.891,3.586a11.57,11.57,0,0,1,1.092,9.645Z" transform="translate(-240.538 -158.705)" fill="#fff" stroke="#000" stroke-linecap="round" stroke-linejoin="round" stroke-width="1"/>
            </g>
          </g>
          <g id="Group_123" data-name="Group 123" transform="translate(0 116.076)">
            <g id="Group_122" data-name="Group 122" transform="translate(33.699 101.694)">
              <g id="Group_121" data-name="Group 121">
                <g id="Group_120" data-name="Group 120">
                  <g id="Group_119" data-name="Group 119">
                    <g id="Group_118" data-name="Group 118">
                      <path id="Path_97" data-name="Path 97" d="M256.309,346.224s6.609,12.136,6.275,16.248l-3.936,9a7.51,7.51,0,0,0-.588,7.049l24.517-13.142-11.668-24.036Z" transform="translate(-256.309 -341.341)"/>
                    </g>
                  </g>
                </g>
              </g>
            </g>
            <path id="Path_98" data-name="Path 98" d="M330.432,223.736s-83.983-4.97-108.174,17.814c-19.5,18.363,23.5,97.271,23.5,97.271l30.606-12.886-24.875-55.618,71.468-.929s29.052-8.3,21.581-45.653Z" transform="translate(-217.186 -223.278)" fill="#fff" stroke="#000" stroke-linecap="round" stroke-linejoin="round" stroke-width="1"/>
          </g>
          <g id="Group_128" data-name="Group 128" transform="translate(77.908)">
            <path id="Path_99" data-name="Path 99" d="M388.235,148.635s1.793-9.192-8.571-12.956c-9.275-3.369-10.135-12.912-10.135-12.912s-2.961-7.464-11.329-6.994-4.157-13.706-18.409-16.517a6.949,6.949,0,0,0-5.835,1.87,13.683,13.683,0,0,0-2.374,17.978l19.393,29.532Z" transform="translate(-310.633 -89.992)" stroke="#000" stroke-linecap="round" stroke-linejoin="round" stroke-width="1"/>
            <g id="Group_127" data-name="Group 127" transform="translate(0 6.568)">
              <g id="Group_125" data-name="Group 125">
                <path id="Path_100" data-name="Path 100" d="M333.786,160.328l-9.14-22.788,7.964-11.276,19.618,28.92Z" transform="translate(-309.993 -100.32)" fill="#fff" stroke="#000" stroke-linecap="round" stroke-linejoin="round" stroke-width="1"/>
                <path id="Path_101" data-name="Path 101" d="M328.446,146.819l3.984-6.4-5.93,1.674Z" transform="translate(-310.25 -102.282)" stroke="#000" stroke-linecap="round" stroke-linejoin="round" stroke-width="1"/>
                <path id="Path_102" data-name="Path 102" d="M345.844,106.339c4.9,9.506-3.592,23.647-13.695,28.86s-18.142,1.818-21.958-8.175c-3.561-9.326-1.624-23.246,8.479-28.458S340.94,96.833,345.844,106.339Z" transform="translate(-307.76 -96.143)" fill="#fff" stroke="#000" stroke-linecap="round" stroke-linejoin="round" stroke-width="1"/>
                <path id="Path_103" data-name="Path 103" d="M346.722,109.01c-3.2-10.061-13.365-14.969-24.322-11.939-8.626,2.384-14.175,10.808-14.766,19.315.123.032,6.959-.18,9.875-7.758,0,0,.814,12.2,13.677,9.827L336.9,131.9C344.534,128.371,350.269,120.155,346.722,109.01Z" transform="translate(-307.634 -96.149)" stroke="#000" stroke-linecap="round" stroke-linejoin="round" stroke-width="1"/>
              </g>
              <g id="Group_126" data-name="Group 126" transform="translate(22.859 21.554)">
                <path id="Path_105" data-name="Path 105" d="M336.283,131.092a5.724,5.724,0,0,0,3.171-2.418c1.592-2.461,1.15-5.576-.987-6.959a3.45,3.45,0,0,0-4.294.483" transform="translate(-334.173 -121.167)" fill="#fff" stroke="#000" stroke-linecap="round" stroke-linejoin="round" stroke-width="1"/>
                <path id="Path_106" data-name="Path 106" d="M334.716,128.66s.594-2.389,2.7-1.94" transform="translate(-334.248 -121.929)" fill="#fff" stroke="#000" stroke-linecap="round" stroke-linejoin="round" stroke-width="1"/>
              </g>
            </g>
            <path id="Path_107" data-name="Path 107" d="M343.222,95.491a6.6,6.6,0,1,0,6.222-6.962A6.6,6.6,0,0,0,343.222,95.491Z" transform="translate(-312.567 -88.518)" stroke="#000" stroke-linecap="round" stroke-linejoin="round" stroke-width="1"/>
          </g>
          <g id="Group_135" data-name="Group 135" transform="translate(89.604 52.621)">
            <path id="Path_108" data-name="Path 108" d="M328.732,156.553l19.443-6.944s23.311,38.692,24.14,64.424c0,0-27.461-.511-51.1-.773Z" transform="translate(-321.213 -149.609)" fill="#ffa65a" stroke="#000" stroke-width="1"/>
          </g>
          <g id="Group_144" data-name="Group 144" transform="translate(1.054 63.276)">
            <g id="Group_136" data-name="Group 136" transform="translate(0 10.822)">
              <path id="Path_110" data-name="Path 110" d="M304.851,220.854a21.754,21.754,0,0,1-5.748,5.731c-18.977,12.545-39.827-17.349-62.526-24.668-3.135-1.011-5.928-1.869-6.93-1.087-1.686,1.315-3.823,3.3-4.619,2.962-.912-.39,1.651-3.209,3.31-5.421,0,0-5.066,5.955-5.96,5.241-1.085-.866,4.651-7.658,4.651-7.658s-6.657,6.7-7.276,5.111,6.1-7.285,6.1-7.285-6.23,5-7.34,3.92c-.9-.876,4.194-4.561,9.056-7.21a15.451,15.451,0,0,1,9.4-1.784,54.7,54.7,0,0,1,13.494,3.961s22.039,10.118,40.065,19.517l18.687-31.722a11.776,11.776,0,0,1,11.135-5.869c3.529.33,7.109,1.885,8.265,6.51a11.567,11.567,0,0,1-1.991,9.5Z" transform="translate(-218.41 -174.543)" fill="#fff" stroke="#000" stroke-linecap="round" stroke-linejoin="round" stroke-width="1"/>
            </g>
            <g id="Group_143" data-name="Group 143" transform="translate(72.878)">
              <path id="Path_111" data-name="Path 111" d="M303.018,201.905,324.6,217.164s34.446-43.374,18.532-53.855C328.125,153.423,303.018,201.905,303.018,201.905Z" transform="translate(-303.018 -161.979)" fill="#ffa65a" stroke="#000" stroke-linecap="round" stroke-linejoin="round" stroke-width="1"/>
            </g>
          </g>
        </g>
      </g>
    </g>
    <g id="Group_151" data-name="Group 151" transform="translate(79.628 87.567)">
      <path id="Path_113" data-name="Path 113" d="M134.309,120.034a5.4,5.4,0,0,1-6.13,5.345c-3.566-.7-5.3-4.682-8.065-7.038a5.154,5.154,0,0,0-4.451-1.407,5.018,5.018,0,0,0-1.949,1.1c-2.147,1.83-3.366,4.487-4.861,6.879s-3.574,4.733-6.359,5.183c-2.706.438-5.43-1.086-7.171-3.2a23.759,23.759,0,0,1-3.606-7.344" transform="translate(-85.161 -94.51)" fill="none" stroke="#000" stroke-linecap="round" stroke-linejoin="round" stroke-width="1"/>
      <g id="Group_148" data-name="Group 148" transform="translate(0 144.148)">
        <path id="Path_114" data-name="Path 114" d="M103.173,346.07a17.288,17.288,0,0,1-9.724-28.149,7.877,7.877,0,0,1,4.973-3.061c1.988-.189,4.2,1.2,4.3,3.2a4.154,4.154,0,0,1-.62,2.214c-2.9,5.114-11.311,4.234-14.916-.411s-3.508-11.156-2.39-16.928a60.867,60.867,0,0,1,31.023-41.695" transform="translate(-84.106 -258.681)" fill="none" stroke="#000" stroke-linecap="round" stroke-linejoin="round" stroke-width="1"/>
        <path id="Path_115" data-name="Path 115" d="M105.087,258.27c2.556.426,13.637,2.557,13.637,2.557v14.915" transform="translate(-87.015 -258.27)" fill="none" stroke="#000" stroke-linecap="round" stroke-linejoin="round" stroke-width="1"/>
      </g>
      <g id="Group_149" data-name="Group 149" transform="translate(350.193 157.745)">
        <path id="Path_116" data-name="Path 116" d="M490.667,274.055c9.993,20.53,36.281,31.444,57.877,24.028a20.688,20.688,0,0,0,8.806-5.214c2.319-2.552,3.569-6.29,2.442-9.548-1.649-4.765-8.033-6.7-12.622-4.607s-7.289,7.135-7.844,12.148c-1.266,11.428,7.334,22.237,17.925,26.713s22.635,3.82,33.961,1.846" transform="translate(-490.667 -274.055)" fill="none" stroke="#000" stroke-linecap="round" stroke-linejoin="round" stroke-width="1"/>
        <path id="Path_117" data-name="Path 117" d="M589.852,316.644l15.111,8.681-10.856,13.325" transform="translate(-504.419 -279.96)" fill="none" stroke="#000" stroke-linecap="round" stroke-linejoin="round" stroke-width="1"/>
      </g>
      <g id="Group_150" data-name="Group 150" transform="translate(356.754 250.691)">
        <path id="Path_118" data-name="Path 118" d="M498.284,433.234c16.5-10.919,25.906-31.667,23.245-51.272" transform="translate(-498.284 -381.962)" fill="none" stroke="#000" stroke-linecap="round" stroke-linejoin="round" stroke-width="1"/>
        <path id="Path_119" data-name="Path 119" d="M518.357,389.809l5.955-7.847,6.478,7.346" transform="translate(-501.067 -381.962)" fill="none" stroke="#000" stroke-linecap="round" stroke-linejoin="round" stroke-width="1"/>
      </g>
      <path id="Path_120" data-name="Path 120" d="M396.369,112.64c3.189,5.315,11.112,6.025,16.535,3.023s8.828-8.612,11.627-14.142c4.386-8.667-8.246-5.347-3.159,6.9,2.1,5.048,5.86,10.237,11.305,10.71,7.753.674,12.439-7.935,16.986-14.251,3.108-4.316,6.873-13.017,11.9-13.862,7.589-1.277,7.851,9.743,8.672,12.766s2.786,6.22,5.9,6.587c3.743.441,6.442-3.26,9.148-5.884a20.626,20.626,0,0,1,23.338-3.342" transform="translate(-127.4 -90.919)" fill="none" stroke="#000" stroke-linecap="round" stroke-linejoin="round" stroke-width="1"/>
    </g>
  </g>
</svg>
